<?xml version="1.0" encoding="utf-8"?><!DOCTYPE svg PUBLIC "-//W3C//DTD SVG 1.1//EN" "http://www.w3.org/Graphics/SVG/1.1/DTD/svg11.dtd"><svg width="3000" height="3000" viewBox="0 0 3000 3000" xmlns="http://www.w3.org/2000/svg" xmlns:xlink="http://www.w3.org/1999/xlink"><svg width="100" height="100" viewBox="0.5 20.5 100 100" id="calculator" xmlns="http://www.w3.org/2000/svg"><path fill="#EF603F" d="M12.101 32.102c0-5.279 4.319-9.602 9.6-9.602h57.606c5.3 0 9.593 4.293 9.593 9.602v76.797c0 5.309-4.298 9.602-9.593 9.602H21.7c-5.3 0-9.6-4.293-9.6-9.602V32.102zm14.4 4.796V46.5h48v-9.602h-48zm0 19.204V65.7h9.6v-9.598h-9.6zm19.199 0V65.7h9.602v-9.598H45.7zm19.199 0V65.7h9.602v-9.598h-9.602zM26.501 75.301v9.598h9.6v-9.598h-9.6zm19.199 0v9.598h9.602v-9.598H45.7zm19.199 0v28.801h9.602V75.301h-9.602zM26.501 94.5v9.602h9.6V94.5h-9.6zm19.199 0v9.602h9.602V94.5H45.7z"/></svg><svg width="100" height="100" viewBox="0 0 100 100" id="calculator-disabled" x="100" y="100" xmlns="http://www.w3.org/2000/svg"><path fill="#C1C1C1" d="M11.601 11.602c0-5.279 4.319-9.602 9.6-9.602h57.605c5.301 0 9.594 4.293 9.594 9.602v76.797c0 5.309-4.299 9.602-9.594 9.602H21.2a9.599 9.599 0 01-9.601-9.602l.002-76.797zm14.4 4.795V26h48v-9.602h-48zm0 19.204V45.2h9.6v-9.599h-9.6zm19.199 0V45.2h9.602v-9.599H45.2zm19.198 0V45.2h9.603v-9.599h-9.603zm-38.397 19.2v9.598h9.6v-9.598h-9.6zm19.199 0v9.598h9.602v-9.598H45.2zm19.198 0v28.801h9.603V54.801h-9.603zM26.001 74v9.602h9.6V74h-9.6zM45.2 74v9.602h9.602V74H45.2z"/></svg><svg width="100" height="100" viewBox="0.5 20.5 100 100" id="calculator-hover" x="200" y="200" xmlns="http://www.w3.org/2000/svg"><path fill="#D84835" d="M12.101 32.102c0-5.279 4.319-9.602 9.6-9.602h57.606c5.3 0 9.593 4.293 9.593 9.602v76.797c0 5.309-4.298 9.602-9.593 9.602H21.7c-5.3 0-9.6-4.293-9.6-9.602V32.102zm14.4 4.796V46.5h48v-9.602h-48zm0 19.204V65.7h9.6v-9.598h-9.6zm19.199 0V65.7h9.602v-9.598H45.7zm19.199 0V65.7h9.602v-9.598h-9.602zM26.501 75.301v9.598h9.6v-9.598h-9.6zm19.199 0v9.598h9.602v-9.598H45.7zm19.199 0v28.801h9.602V75.301h-9.602zM26.501 94.5v9.602h9.6V94.5h-9.6zm19.199 0v9.602h9.602V94.5H45.7z"/></svg><svg width="100" height="100" viewBox="0 0 100 100" id="capture" x="300" y="300" xmlns="http://www.w3.org/2000/svg"><path fill="#2975A8" d="M79.766 65.769c-1.859-1.146-4.421-.496-5.526 1.323l-9.614 20.19H21.334l-9.093-24.667h5.83c2.219 0 4.02-1.815 4.02-4.036a4.03 4.03 0 00-4.02-4.02H6.017c-1.365 0-2.63.688-3.365 1.845a3.967 3.967 0 00-.294 3.827l12.711 32.734a4.03 4.03 0 003.664 2.363h48.142c1.387 0 2.699-.74 3.418-1.916l10.785-22.107a3.971 3.971 0 00.474-3.043c-.234-1.058-.88-1.921-1.786-2.493z"/><path fill="#2975A8" d="M97.207 31.435L71.24 5.467a2.734 2.734 0 00-3.858 0L66.038 6.8a2.755 2.755 0 000 3.869l2.802 2.796c-.912 1.063-1.827 2.021-2.845 2.516-2.087 1.026-4.513 1.506-7.093 2.005-2.229.438-4.09.813-5.963 1.427-5.259 1.683-8.682 5.636-11.69 9.104l-1.492 1.687c-.749.823-1.623 1.636-2.529 2.459-3.145 2.884-7.06 6.484-6.926 12.072.073 2.688.026 5.407-.005 8.11v2.697c.18 1.609.037 3.641-.096 5.604-.375 5.499.362 19.671 9.721 17.702 4.604-.967 4.428-8.62 4.915-12.123.954-6.932 1.823-14.656 5.013-20.969.633-1.262 2.042-2.246 3.762-2.63 1.475-.338 3.048-.109 3.871.525.875.677.363 1.938.307 2.084-.391.891-.817 1.812-1.334 2.9-2.473 5.246-5.558 11.786-2.314 17.286 1.109 1.857 3.389 3.844 6.775 3.844 5.879-.115 9.211-5.338 11.659-9.139l.229-.365c.678-1.018 1.301-1.984 1.904-2.71 1.288-1.474 2.668-2.849 4.211-4.369 2.791-2.765 5.676-5.61 7.903-9.261.804-1.307 1.313-3.438 2.438-8.718l.147-.667c.019-.135.051-.281.082-.406l2.515 2.521a2.737 2.737 0 003.86 0l1.332-1.34c1.069-1.075 1.069-2.814.01-3.876z"/></svg><svg width="100" height="100" viewBox="0 0 100 100" id="capture-disabled" x="400" y="400" xmlns="http://www.w3.org/2000/svg"><path fill="#C1C1C1" d="M79.766 65.769c-1.859-1.146-4.421-.496-5.526 1.323l-9.614 20.19H21.334l-9.093-24.667h5.83c2.219 0 4.02-1.815 4.02-4.036a4.03 4.03 0 00-4.02-4.02H6.017c-1.365 0-2.63.688-3.365 1.845a3.967 3.967 0 00-.294 3.827l12.711 32.734a4.03 4.03 0 003.664 2.363h48.142c1.387 0 2.699-.74 3.418-1.916l10.785-22.107a3.971 3.971 0 00.474-3.043c-.234-1.058-.88-1.921-1.786-2.493z"/><path fill="#C1C1C1" d="M97.207 31.435L71.24 5.467a2.734 2.734 0 00-3.858 0L66.038 6.8a2.755 2.755 0 000 3.869l2.802 2.796c-.912 1.063-1.827 2.021-2.845 2.516-2.087 1.026-4.513 1.506-7.093 2.005-2.229.438-4.09.813-5.963 1.427-5.259 1.683-8.682 5.636-11.69 9.104l-1.492 1.687c-.749.823-1.623 1.636-2.529 2.459-3.145 2.884-7.06 6.484-6.926 12.072.073 2.688.026 5.407-.005 8.11v2.697c.18 1.609.037 3.641-.096 5.604-.375 5.499.362 19.671 9.721 17.702 4.604-.967 4.428-8.62 4.915-12.123.954-6.932 1.823-14.656 5.013-20.969.633-1.262 2.042-2.246 3.762-2.63 1.475-.338 3.048-.109 3.871.525.875.677.363 1.938.307 2.084-.391.891-.817 1.812-1.334 2.9-2.473 5.246-5.558 11.786-2.314 17.286 1.109 1.857 3.389 3.844 6.775 3.844 5.879-.115 9.211-5.338 11.659-9.139l.229-.365c.678-1.018 1.301-1.984 1.904-2.71 1.288-1.474 2.668-2.849 4.211-4.369 2.791-2.765 5.676-5.61 7.903-9.261.804-1.307 1.313-3.438 2.438-8.718l.147-.667c.019-.135.051-.281.082-.406l2.515 2.521a2.737 2.737 0 003.86 0l1.332-1.34c1.069-1.075 1.069-2.814.01-3.876z"/></svg><svg width="100" height="100" viewBox="0 0 100 100" id="capture-hover" x="500" y="500" xmlns="http://www.w3.org/2000/svg"><path fill="#236490" d="M79.766 65.769c-1.859-1.146-4.421-.496-5.526 1.323l-9.614 20.19H21.334l-9.093-24.667h5.83c2.219 0 4.02-1.815 4.02-4.036a4.03 4.03 0 00-4.02-4.02H6.017c-1.365 0-2.63.688-3.365 1.845a3.967 3.967 0 00-.294 3.827l12.711 32.734a4.03 4.03 0 003.664 2.363h48.142c1.387 0 2.699-.74 3.418-1.916l10.785-22.107a3.971 3.971 0 00.474-3.043c-.234-1.058-.88-1.921-1.786-2.493z"/><path fill="#236490" d="M97.207 31.435L71.24 5.467a2.734 2.734 0 00-3.858 0L66.038 6.8a2.755 2.755 0 000 3.869l2.802 2.796c-.912 1.063-1.827 2.021-2.845 2.516-2.087 1.026-4.513 1.506-7.093 2.005-2.229.438-4.09.813-5.963 1.427-5.259 1.683-8.682 5.636-11.69 9.104l-1.492 1.687c-.749.823-1.623 1.636-2.529 2.459-3.145 2.884-7.06 6.484-6.926 12.072.073 2.688.026 5.407-.005 8.11v2.697c.18 1.609.037 3.641-.096 5.604-.375 5.499.362 19.671 9.721 17.702 4.604-.967 4.428-8.62 4.915-12.123.954-6.932 1.823-14.656 5.013-20.969.633-1.262 2.042-2.246 3.762-2.63 1.475-.338 3.048-.109 3.871.525.875.677.363 1.938.307 2.084-.391.891-.817 1.812-1.334 2.9-2.473 5.246-5.558 11.786-2.314 17.286 1.109 1.857 3.389 3.844 6.775 3.844 5.879-.115 9.211-5.338 11.659-9.139l.229-.365c.678-1.018 1.301-1.984 1.904-2.71 1.288-1.474 2.668-2.849 4.211-4.369 2.791-2.765 5.676-5.61 7.903-9.261.804-1.307 1.313-3.438 2.438-8.718l.147-.667c.019-.135.051-.281.082-.406l2.515 2.521a2.737 2.737 0 003.86 0l1.332-1.34c1.069-1.075 1.069-2.814.01-3.876z"/></svg><svg width="100" height="100" viewBox="0 0 100 100" id="change" x="600" y="600" xmlns="http://www.w3.org/2000/svg"><path fill="#62B65C" d="M65.787 62.783H21.589l13.58-13.465 1.023-1.002L28.881 41 2.984 66.711 2 67.707l26.104 26.274L29.105 95l7.311-7.305-14.364-14.486h43.735zM71.896 6.019l-1-1.019-7.311 7.304 14.363 14.487H34.213v10.425h44.198L64.832 50.682l-1.024 1.002L71.119 59l25.897-25.711.984-.995z"/></svg><svg width="100" height="100" viewBox="0 0 100 100" id="change-disabled" x="700" y="700" xmlns="http://www.w3.org/2000/svg"><path fill="#C1C1C1" d="M65.787 62.783H21.589l13.58-13.465 1.023-1.002L28.881 41 2.984 66.711 2 67.707 28.104 93.98 29.105 95l7.311-7.305-14.364-14.486h43.735zM71.896 6.019l-1-1.019-7.311 7.304 14.363 14.487H34.213v10.425h44.198L64.832 50.682l-1.023 1.002L71.119 59l25.897-25.711.984-.995z"/></svg><svg width="100" height="100" viewBox="0 0 100 100" id="change-hover" x="800" y="800" xmlns="http://www.w3.org/2000/svg"><path fill="#090" d="M65.787 62.783H21.589l13.58-13.465 1.023-1.002L28.881 41 2.984 66.711 2 67.707l26.104 26.274L29.105 95l7.311-7.305-14.364-14.486h43.735zM71.896 6.019l-1-1.019-7.311 7.304 14.363 14.487H34.213v10.425h44.198L64.832 50.682l-1.024 1.002L71.119 59l25.897-25.711.984-.995z"/></svg><svg width="100" height="100" viewBox="0 0 100 100" id="check" x="900" y="900" xmlns="http://www.w3.org/2000/svg"><path fill="#3280B7" d="M98 27.579c0 1.653-.586 3.06-1.738 4.208L42.998 85.054c-1.157 1.155-2.561 1.735-4.212 1.735-1.649 0-3.046-.58-4.213-1.735L3.735 54.21C2.574 53.056 2 51.65 2 50.003c0-1.647.574-3.052 1.735-4.213l8.422-8.425c1.151-1.148 2.558-1.735 4.208-1.735 1.649 0 3.051.585 4.209 1.735l18.211 18.282 40.629-40.694c1.161-1.162 2.561-1.741 4.207-1.741 1.653 0 3.059.58 4.213 1.741l8.422 8.419c1.16 1.149 1.734 2.561 1.734 4.206l.01.001z"/></svg><svg width="100" height="100" viewBox="0 0 100 100" id="check-disabled" x="1000" y="1000" xmlns="http://www.w3.org/2000/svg"><path fill="#C1C1C1" d="M98 27.579c0 1.653-.586 3.06-1.738 4.208L42.998 85.054c-1.157 1.155-2.561 1.735-4.212 1.735-1.649 0-3.046-.58-4.213-1.735L3.735 54.21C2.574 53.056 2 51.65 2 50.003c0-1.647.574-3.052 1.735-4.213l8.422-8.425c1.151-1.148 2.558-1.735 4.208-1.735 1.649 0 3.051.585 4.209 1.735l18.211 18.282 40.629-40.694c1.161-1.162 2.561-1.741 4.207-1.741 1.653 0 3.059.58 4.213 1.741l8.422 8.419c1.16 1.149 1.734 2.561 1.734 4.206l.01.001z"/></svg><svg width="100" height="100" viewBox="0 0 100 100" id="check-hover" x="1100" y="1100" xmlns="http://www.w3.org/2000/svg"><path fill="#0F5D8A" d="M98 27.579c0 1.653-.586 3.06-1.738 4.208L42.998 85.054c-1.157 1.155-2.561 1.735-4.212 1.735-1.649 0-3.046-.58-4.213-1.735L3.735 54.21C2.574 53.056 2 51.65 2 50.003c0-1.647.574-3.052 1.735-4.213l8.422-8.425c1.151-1.148 2.558-1.735 4.208-1.735 1.649 0 3.051.585 4.209 1.735l18.211 18.282 40.629-40.694c1.161-1.162 2.561-1.741 4.207-1.741 1.653 0 3.059.58 4.213 1.741l8.422 8.419c1.16 1.149 1.734 2.561 1.734 4.206l.01.001z"/></svg><svg width="100" height="100" viewBox="0 0 100 100" id="circle-down" x="1200" y="1200" xmlns="http://www.w3.org/2000/svg"><path fill="#34495E" d="M50 98c26.51 0 48-21.49 48-48S76.51 2 50 2 2 23.49 2 50s21.49 48 48 48zm0-87c21.542 0 39 17.46 39 39 0 21.542-17.457 39.001-39 39.001-21.539 0-39-17.458-39-39.001 0-21.539 17.461-39 39-39z"/><path fill="#34495E" d="M74 48.633c0-.857-.35-1.681-.979-2.313l-2.387-2.388a3.199 3.199 0 00-2.312-.978c-.874 0-1.715.352-2.306.964L55.334 54.566V30.319c0-1.942-1.657-2.947-3.295-2.947h-4.065c-1.644 0-3.304 1.011-3.304 2.947v24.247L34.005 43.933a3.211 3.211 0 00-2.316-.985c-.871 0-1.725.359-2.347.979l-2.384 2.391a3.331 3.331 0 00-.955 2.316c0 .864.35 1.721.955 2.356l20.691 20.693a3.376 3.376 0 002.354.952c.89 0 1.731-.348 2.306-.941L73.024 50.98A3.362 3.362 0 0074 48.633z"/></svg><svg width="100" height="100" viewBox="0 0 100 100" id="circle-down-disabled" x="1300" y="1300" xmlns="http://www.w3.org/2000/svg"><path fill="#C1C1C1" d="M50 98c26.51 0 48-21.49 48-48S76.51 2 50 2 2 23.49 2 50s21.49 48 48 48zm0-87c21.542 0 39 17.46 39 39 0 21.542-17.457 39.001-39 39.001-21.539 0-39-17.458-39-39.001 0-21.539 17.461-39 39-39z"/><path fill="#C1C1C1" d="M74 48.633c0-.857-.35-1.681-.979-2.313l-2.387-2.388a3.199 3.199 0 00-2.312-.978c-.874 0-1.715.352-2.306.964L55.334 54.566V30.319c0-1.942-1.657-2.947-3.295-2.947h-4.065c-1.644 0-3.304 1.011-3.304 2.947v24.247L34.005 43.933a3.211 3.211 0 00-2.316-.985c-.871 0-1.725.359-2.347.979l-2.384 2.391a3.331 3.331 0 00-.955 2.316c0 .864.35 1.721.955 2.356l20.691 20.693a3.376 3.376 0 002.354.952c.89 0 1.731-.348 2.306-.941L73.024 50.98A3.362 3.362 0 0074 48.633z"/></svg><svg width="100" height="100" viewBox="0 0 100 100" id="circle-down-hover" x="1400" y="1400" xmlns="http://www.w3.org/2000/svg"><path fill="#253544" d="M50 98c26.51 0 48-21.49 48-48S76.51 2 50 2 2 23.49 2 50s21.49 48 48 48zm0-87c21.542 0 39 17.46 39 39 0 21.542-17.457 39.001-39 39.001-21.539 0-39-17.458-39-39.001 0-21.539 17.461-39 39-39z"/><path fill="#253544" d="M74 48.633c0-.857-.35-1.681-.979-2.313l-2.387-2.388a3.199 3.199 0 00-2.312-.978c-.874 0-1.715.352-2.306.964L55.334 54.566V30.319c0-1.942-1.657-2.947-3.295-2.947h-4.065c-1.644 0-3.304 1.011-3.304 2.947v24.247L34.005 43.933a3.211 3.211 0 00-2.316-.985c-.871 0-1.725.359-2.347.979l-2.384 2.391a3.331 3.331 0 00-.955 2.316c0 .864.35 1.721.955 2.356l20.691 20.693a3.376 3.376 0 002.354.952c.89 0 1.731-.348 2.306-.941L73.024 50.98A3.362 3.362 0 0074 48.633z"/></svg><svg width="100" height="100" viewBox="0 0 100 100" id="circle-up" x="1500" y="1500" xmlns="http://www.w3.org/2000/svg"><path fill="#34495E" d="M50 2C23.491 2 2 23.49 2 50s21.491 48 48 48c26.51 0 48-21.49 48-48S76.51 2 50 2zm0 87c-21.542 0-39-17.46-39-39 0-21.542 17.458-39 39-39 21.539 0 39 17.458 39 39 0 21.539-17.461 39-39 39z"/><path fill="#34495E" d="M26 51.365c0 .857.35 1.682.978 2.314l2.388 2.387c.601.632 1.44.979 2.312.979.874 0 1.714-.351 2.304-.964l10.683-10.647v24.248c0 1.941 1.658 2.947 3.296 2.947h4.064c1.645 0 3.305-1.012 3.305-2.947V45.433l10.664 10.634a3.204 3.204 0 002.318.985c.868 0 1.723-.358 2.347-.979l2.384-2.39a3.334 3.334 0 00.954-2.318c0-.861-.351-1.719-.954-2.355L52.35 28.317a3.364 3.364 0 00-2.354-.952c-.891 0-1.731.345-2.307.94L26.975 49.02A3.373 3.373 0 0026 51.365z"/></svg><svg width="100" height="100" viewBox="0 0 100 100" id="circle-up-disabled" x="1600" y="1600" xmlns="http://www.w3.org/2000/svg"><path fill="#C1C1C1" d="M50 2C23.491 2 2 23.49 2 50s21.491 48 48 48c26.51 0 48-21.49 48-48S76.51 2 50 2zm0 87c-21.542 0-39-17.46-39-39 0-21.542 17.458-39 39-39 21.539 0 39 17.458 39 39 0 21.539-17.461 39-39 39z"/><path fill="#C1C1C1" d="M26 51.365c0 .857.35 1.682.978 2.314l2.388 2.387c.601.632 1.44.979 2.312.979.874 0 1.714-.351 2.304-.964l10.683-10.647v24.248c0 1.941 1.658 2.947 3.296 2.947h4.064c1.645 0 3.305-1.012 3.305-2.947V45.433l10.664 10.634a3.204 3.204 0 002.318.985c.868 0 1.723-.358 2.347-.979l2.384-2.39a3.334 3.334 0 00.954-2.318c0-.861-.351-1.719-.954-2.355L52.35 28.317a3.364 3.364 0 00-2.354-.952c-.891 0-1.731.345-2.307.94L26.975 49.02A3.373 3.373 0 0026 51.365z"/></svg><svg width="100" height="100" viewBox="0 0 100 100" id="circle-up-hover" x="1700" y="1700" xmlns="http://www.w3.org/2000/svg"><path fill="#253544" d="M50 2C23.491 2 2 23.49 2 50s21.491 48 48 48c26.51 0 48-21.49 48-48S76.51 2 50 2zm0 87c-21.542 0-39-17.46-39-39 0-21.542 17.458-39 39-39 21.539 0 39 17.458 39 39 0 21.539-17.461 39-39 39z"/><path fill="#253544" d="M26 51.365c0 .857.35 1.682.978 2.314l2.388 2.387c.601.632 1.44.979 2.312.979.874 0 1.714-.351 2.304-.964l10.683-10.647v24.248c0 1.941 1.658 2.947 3.296 2.947h4.064c1.645 0 3.305-1.012 3.305-2.947V45.433l10.664 10.634a3.204 3.204 0 002.318.985c.868 0 1.723-.358 2.347-.979l2.384-2.39a3.334 3.334 0 00.954-2.318c0-.861-.351-1.719-.954-2.355L52.35 28.317a3.364 3.364 0 00-2.354-.952c-.891 0-1.731.345-2.307.94L26.975 49.02A3.373 3.373 0 0026 51.365z"/></svg><svg width="100" height="100" viewBox="0 0 100 100" id="close-window-blue" x="1800" y="1800" xmlns="http://www.w3.org/2000/svg"><path fill="#327CCB" d="M51.005 44l11.906 11.91a1.977 1.977 0 010 2.811l-4.197 4.199a1.983 1.983 0 01-2.805 0L43.992 51.006 32.08 62.92a1.985 1.985 0 01-2.807 0l-4.192-4.199a1.983 1.983 0 010-2.811L36.994 44 25.083 32.083a1.977 1.977 0 010-2.806l4.201-4.2a1.971 1.971 0 012.797 0l11.91 11.917 11.918-11.917a1.98 1.98 0 012.805 0l4.197 4.204a1.97 1.97 0 010 2.805L51.005 44z"/><path fill="#327CCB" d="M85.589 5.519c-.016-.026-.016-.064-.029-.095-.09-.214-.216-.404-.332-.603-.063-.111-.115-.243-.189-.345-.091-.145-.217-.267-.329-.396-.115-.145-.225-.306-.35-.434-.164-.161-.35-.295-.53-.436-.102-.081-.196-.175-.307-.248-.163-.113-.357-.197-.54-.294-.138-.072-.266-.165-.413-.224A5.451 5.451 0 0080.398 2H7.596c-.186 0-.365.037-.55.058-.174.018-.35.018-.517.047a5.537 5.537 0 00-.97.291.943.943 0 01-.039.012c-.027.015-.065.022-.095.036-.215.087-.405.212-.605.328-.11.063-.24.109-.343.186-.025.019-.044.037-.068.058-.122.084-.233.19-.351.289-.138.111-.287.21-.411.341-.161.16-.295.344-.438.521-.084.108-.175.2-.251.306-.114.168-.198.357-.293.539-.068.138-.165.263-.221.412A5.51 5.51 0 002 7.6v72.804c0 .385.037.766.114 1.127.142.684.425 1.336.794 1.913.021.027.032.06.05.081A5.604 5.604 0 007.596 86h72.806C83.479 86 86 83.475 86 80.401V7.6c0-.737-.149-1.435-.411-2.081zM74.798 74.8H13.2V13.2h61.598v61.6z"/></svg><svg width="100" height="100" viewBox="0 0 100 100" id="close-window-blue-hover" x="1900" y="1900" xmlns="http://www.w3.org/2000/svg"><path fill="#0B486B" d="M51.005 44l11.906 11.91a1.977 1.977 0 010 2.811l-4.197 4.199a1.983 1.983 0 01-2.805 0L43.992 51.006 32.08 62.92a1.985 1.985 0 01-2.807 0l-4.192-4.199a1.983 1.983 0 010-2.811L36.994 44 25.083 32.083a1.977 1.977 0 010-2.806l4.201-4.2a1.971 1.971 0 012.797 0l11.91 11.917 11.918-11.917a1.98 1.98 0 012.805 0l4.197 4.204a1.97 1.97 0 010 2.805L51.005 44z"/><path fill="#0B486B" d="M85.589 5.519c-.016-.026-.016-.064-.029-.095-.09-.214-.216-.404-.332-.603-.063-.111-.115-.243-.189-.345-.091-.145-.217-.267-.329-.396-.115-.145-.225-.306-.35-.434-.164-.161-.35-.295-.53-.436-.102-.081-.196-.175-.307-.248-.163-.113-.357-.197-.54-.294-.138-.072-.266-.165-.413-.224A5.451 5.451 0 0080.398 2H7.596c-.186 0-.365.037-.55.058-.174.018-.35.018-.517.047a5.537 5.537 0 00-.97.291.943.943 0 01-.039.012c-.027.015-.065.022-.095.036-.215.087-.405.212-.605.328-.11.063-.24.109-.343.186-.025.019-.044.037-.068.058-.122.084-.233.19-.351.289-.138.111-.287.21-.411.341-.161.16-.295.344-.438.521-.084.108-.175.2-.251.306-.114.168-.198.357-.293.539-.068.138-.165.263-.221.412A5.51 5.51 0 002 7.6v72.804c0 .385.037.766.114 1.127.142.684.425 1.336.794 1.913.021.027.032.06.05.081A5.604 5.604 0 007.596 86h72.806C83.479 86 86 83.475 86 80.401V7.6c0-.737-.149-1.435-.411-2.081zM74.798 74.8H13.2V13.2h61.598v61.6z"/></svg><svg width="100" height="100" viewBox="0 0 100 100" id="close-window-green" x="2000" y="2000" xmlns="http://www.w3.org/2000/svg"><path fill="#76A328" d="M51.005 44l11.906 11.91a1.977 1.977 0 010 2.811l-4.197 4.199a1.983 1.983 0 01-2.805 0L43.992 51.006 32.08 62.92a1.985 1.985 0 01-2.807 0l-4.192-4.199a1.983 1.983 0 010-2.811L36.994 44 25.083 32.083a1.977 1.977 0 010-2.806l4.201-4.2a1.971 1.971 0 012.797 0l11.91 11.917 11.918-11.917a1.98 1.98 0 012.805 0l4.197 4.204a1.97 1.97 0 010 2.805L51.005 44z"/><path fill="#76A328" d="M85.589 5.519c-.016-.026-.016-.064-.029-.095-.09-.214-.216-.404-.332-.603-.063-.111-.115-.243-.189-.345-.091-.145-.217-.267-.329-.396-.115-.145-.225-.306-.35-.434-.164-.161-.35-.295-.53-.436-.102-.081-.196-.175-.307-.248-.163-.113-.357-.197-.54-.294-.138-.072-.266-.165-.413-.224A5.451 5.451 0 0080.398 2H7.596c-.186 0-.365.037-.55.058-.174.018-.35.018-.517.047a5.537 5.537 0 00-.97.291.943.943 0 01-.039.012c-.027.015-.065.022-.095.036-.215.087-.405.212-.605.328-.11.063-.24.109-.343.186-.025.019-.044.037-.068.058-.122.084-.233.19-.351.289-.138.111-.287.21-.411.341-.161.16-.295.344-.438.521-.084.108-.175.2-.251.306-.114.168-.198.357-.293.539-.068.138-.165.263-.221.412A5.51 5.51 0 002 7.6v72.804c0 .385.037.766.114 1.127.142.684.425 1.336.794 1.913.021.027.032.06.05.081A5.604 5.604 0 007.596 86h72.806C83.479 86 86 83.475 86 80.401V7.6c0-.737-.149-1.435-.411-2.081zM74.798 74.8H13.2V13.2h61.598v61.6z"/></svg><svg width="100" height="100" viewBox="0 0 100 100" id="close-window-green-hover" x="2100" y="2100" xmlns="http://www.w3.org/2000/svg"><path fill="#244805" d="M51.005 44l11.906 11.91a1.977 1.977 0 010 2.811l-4.197 4.199a1.983 1.983 0 01-2.805 0L43.992 51.006 32.08 62.92a1.985 1.985 0 01-2.807 0l-4.192-4.199a1.983 1.983 0 010-2.811L36.994 44 25.083 32.083a1.977 1.977 0 010-2.806l4.201-4.2a1.971 1.971 0 012.797 0l11.91 11.917 11.918-11.917a1.98 1.98 0 012.805 0l4.197 4.204a1.97 1.97 0 010 2.805L51.005 44z"/><path fill="#244805" d="M85.589 5.519c-.016-.026-.016-.064-.029-.095-.09-.214-.216-.404-.332-.603-.063-.111-.115-.243-.189-.345-.091-.145-.217-.267-.329-.396-.115-.145-.225-.306-.35-.434-.164-.161-.35-.295-.53-.436-.102-.081-.196-.175-.307-.248-.163-.113-.357-.197-.54-.294-.138-.072-.266-.165-.413-.224A5.451 5.451 0 0080.398 2H7.596c-.186 0-.365.037-.55.058-.174.018-.35.018-.517.047a5.537 5.537 0 00-.97.291.943.943 0 01-.039.012c-.027.015-.065.022-.095.036-.215.087-.405.212-.605.328-.11.063-.24.109-.343.186-.025.019-.044.037-.068.058-.122.084-.233.19-.351.289-.138.111-.287.21-.411.341-.161.16-.295.344-.438.521-.084.108-.175.2-.251.306-.114.168-.198.357-.293.539-.068.138-.165.263-.221.412A5.51 5.51 0 002 7.6v72.804c0 .385.037.766.114 1.127.142.684.425 1.336.794 1.913.021.027.032.06.05.081A5.604 5.604 0 007.596 86h72.806C83.479 86 86 83.475 86 80.401V7.6c0-.737-.149-1.435-.411-2.081zM74.798 74.8H13.2V13.2h61.598v61.6z"/></svg><svg width="100" height="100" viewBox="0 0 100 100" id="close-window-orange" x="2200" y="2200" xmlns="http://www.w3.org/2000/svg"><path fill="#E46E34" d="M51.005 44l11.906 11.91a1.977 1.977 0 010 2.811l-4.197 4.199a1.983 1.983 0 01-2.805 0L43.992 51.006 32.08 62.92a1.985 1.985 0 01-2.807 0l-4.192-4.199a1.983 1.983 0 010-2.811L36.994 44 25.083 32.083a1.977 1.977 0 010-2.806l4.201-4.2a1.971 1.971 0 012.797 0l11.91 11.917 11.918-11.917a1.98 1.98 0 012.805 0l4.197 4.204a1.97 1.97 0 010 2.805L51.005 44z"/><path fill="#E46E34" d="M85.589 5.519c-.016-.026-.016-.064-.029-.095-.09-.214-.216-.404-.332-.603-.063-.111-.115-.243-.189-.345-.091-.145-.217-.267-.329-.396-.115-.145-.225-.306-.35-.434-.164-.161-.35-.295-.53-.436-.102-.081-.196-.175-.307-.248-.163-.113-.357-.197-.54-.294-.138-.072-.266-.165-.413-.224A5.451 5.451 0 0080.398 2H7.596c-.186 0-.365.037-.55.058-.174.018-.35.018-.517.047a5.537 5.537 0 00-.97.291.943.943 0 01-.039.012c-.027.015-.065.022-.095.036-.215.087-.405.212-.605.328-.11.063-.24.109-.343.186-.025.019-.044.037-.068.058-.122.084-.233.19-.351.289-.138.111-.287.21-.411.341-.161.16-.295.344-.438.521-.084.108-.175.2-.251.306-.114.168-.198.357-.293.539-.068.138-.165.263-.221.412A5.51 5.51 0 002 7.6v72.804c0 .385.037.766.114 1.127.142.684.425 1.336.794 1.913.021.027.032.06.05.081A5.604 5.604 0 007.596 86h72.806C83.479 86 86 83.475 86 80.401V7.6c0-.737-.149-1.435-.411-2.081zM74.798 74.8H13.2V13.2h61.598v61.6z"/></svg><svg width="100" height="100" viewBox="0 0 100 100" id="close-window-orange-hover" x="2300" y="2300" xmlns="http://www.w3.org/2000/svg"><path fill="#AB4A08" d="M51.005 44l11.906 11.91a1.977 1.977 0 010 2.811l-4.197 4.199a1.983 1.983 0 01-2.805 0L43.992 51.006 32.08 62.92a1.985 1.985 0 01-2.807 0l-4.192-4.199a1.983 1.983 0 010-2.811L36.994 44 25.083 32.083a1.975 1.975 0 010-2.805l4.201-4.201a1.973 1.973 0 012.797 0l11.91 11.917 11.918-11.917a1.983 1.983 0 012.805 0l4.197 4.204a1.971 1.971 0 010 2.806L51.005 44z"/><path fill="#AB4A08" d="M85.589 5.52c-.016-.026-.016-.064-.029-.095-.09-.215-.216-.404-.332-.603-.063-.111-.115-.243-.189-.345-.091-.146-.217-.267-.329-.396-.115-.146-.225-.306-.35-.434-.164-.161-.35-.296-.53-.437-.102-.08-.196-.175-.307-.248-.163-.113-.357-.197-.54-.295-.138-.071-.266-.164-.413-.224A5.468 5.468 0 0080.398 2H7.596c-.186 0-.365.037-.55.059-.174.018-.35.018-.517.046a5.713 5.713 0 00-.97.291.356.356 0 01-.039.013c-.027.015-.065.022-.095.035-.215.087-.405.212-.605.328-.11.064-.24.11-.343.186-.025.019-.044.038-.068.059-.122.084-.233.189-.351.288-.138.112-.287.211-.411.342-.161.16-.295.343-.438.521-.084.108-.175.2-.251.306-.114.167-.198.356-.293.539-.068.137-.165.262-.221.412A5.507 5.507 0 002 7.601v72.803c0 .385.037.766.114 1.127.142.684.425 1.336.794 1.913.021.027.032.06.05.08A5.6 5.6 0 007.596 86h72.806C83.479 86 86 83.475 86 80.402V7.601c0-.738-.149-1.436-.411-2.081zM74.798 74.8H13.2V13.2h61.598v61.6z"/></svg><svg width="100" height="100" viewBox="0 0 100 100" id="close-window-purple" x="2400" y="2400" xmlns="http://www.w3.org/2000/svg"><path fill="#B360BA" d="M51.005 44l11.906 11.91a1.977 1.977 0 010 2.811l-4.197 4.199a1.983 1.983 0 01-2.805 0L43.992 51.006 32.08 62.92a1.985 1.985 0 01-2.807 0l-4.192-4.199a1.983 1.983 0 010-2.811L36.994 44 25.083 32.083a1.975 1.975 0 010-2.805l4.201-4.201a1.973 1.973 0 012.797 0l11.91 11.917 11.918-11.917a1.983 1.983 0 012.805 0l4.197 4.204a1.971 1.971 0 010 2.806L51.005 44z"/><path fill="#B360BA" d="M85.589 5.52c-.016-.026-.016-.064-.029-.095-.09-.215-.216-.404-.332-.603-.063-.111-.115-.243-.189-.345-.091-.146-.217-.267-.329-.396-.115-.146-.225-.306-.35-.434-.164-.161-.35-.296-.53-.437-.102-.08-.196-.175-.307-.248-.163-.113-.357-.197-.54-.295-.138-.071-.266-.164-.413-.224A5.468 5.468 0 0080.398 2H7.596c-.186 0-.365.037-.55.059-.174.018-.35.018-.517.046a5.713 5.713 0 00-.97.291.356.356 0 01-.039.013c-.027.015-.065.022-.095.035-.215.087-.405.212-.605.328-.11.064-.24.11-.343.186-.025.019-.044.038-.068.059-.122.084-.233.189-.351.288-.138.112-.287.211-.411.342-.161.16-.295.343-.438.521-.084.108-.175.2-.251.306-.114.167-.198.356-.293.539-.068.137-.165.262-.221.412A5.507 5.507 0 002 7.601v72.803c0 .385.037.766.114 1.127.142.684.425 1.336.794 1.913.021.027.032.06.05.08A5.6 5.6 0 007.596 86h72.806C83.479 86 86 83.475 86 80.402V7.601c0-.738-.149-1.436-.411-2.081zM74.798 74.8H13.2V13.2h61.598v61.6z"/></svg><svg width="100" height="100" viewBox="0 0 100 100" id="close-window-purple-hover" x="2500" y="2500" xmlns="http://www.w3.org/2000/svg"><path fill="#663267" d="M51.005 44l11.906 11.91a1.977 1.977 0 010 2.811l-4.197 4.199a1.986 1.986 0 01-2.805 0L43.992 51.006 32.08 62.92a1.989 1.989 0 01-2.807 0l-4.192-4.199a1.983 1.983 0 010-2.811L36.994 44 25.083 32.083a1.975 1.975 0 010-2.805l4.201-4.201a1.971 1.971 0 012.797 0l11.91 11.917 11.918-11.917a1.98 1.98 0 012.805 0l4.197 4.205a1.97 1.97 0 010 2.805L51.005 44z"/><path fill="#663267" d="M85.589 5.52c-.016-.026-.016-.065-.029-.095-.09-.215-.216-.405-.332-.603-.063-.111-.115-.243-.189-.345-.091-.145-.217-.266-.329-.396-.115-.145-.225-.306-.35-.434-.164-.161-.35-.295-.53-.437-.102-.08-.196-.175-.307-.248-.163-.113-.357-.198-.54-.295-.138-.071-.266-.165-.413-.224A5.468 5.468 0 0080.398 2H7.596c-.186 0-.365.038-.55.059-.174.018-.35.018-.517.047a5.623 5.623 0 00-.97.291.943.943 0 01-.039.012c-.027.015-.065.022-.095.035-.215.087-.405.213-.605.328-.11.064-.24.11-.343.186-.025.019-.044.038-.068.059-.122.084-.233.189-.351.288-.138.112-.287.211-.411.342-.161.16-.295.343-.438.521-.084.108-.175.2-.251.306-.114.167-.198.357-.293.539-.068.137-.165.263-.221.412A5.507 5.507 0 002 7.601v72.802c0 .385.037.766.114 1.127.142.684.425 1.336.794 1.914.021.027.032.059.05.08A5.605 5.605 0 007.596 86h72.806C83.479 86 86 83.475 86 80.402V7.601c0-.737-.149-1.435-.411-2.081zM74.798 74.799H13.2V13.2h61.598v61.599z"/></svg><svg width="100" height="100" viewBox="0 0 100 100" id="close-window-red" x="2600" y="2600" xmlns="http://www.w3.org/2000/svg"><path fill="#B74E4E" d="M51.005 44l11.906 11.91a1.977 1.977 0 010 2.811l-4.197 4.199a1.983 1.983 0 01-2.805 0L43.992 51.006 32.08 62.92a1.985 1.985 0 01-2.807 0l-4.192-4.199a1.983 1.983 0 010-2.811L36.994 44 25.083 32.083a1.975 1.975 0 010-2.805l4.201-4.201a1.973 1.973 0 012.797 0l11.91 11.917 11.918-11.917a1.983 1.983 0 012.805 0l4.197 4.204a1.971 1.971 0 010 2.806L51.005 44z"/><path fill="#B74E4E" d="M85.589 5.52c-.016-.026-.016-.064-.029-.095-.09-.215-.216-.404-.332-.603-.063-.111-.115-.243-.189-.345-.091-.146-.217-.267-.329-.396-.115-.146-.225-.306-.35-.434-.164-.161-.35-.296-.53-.437-.102-.08-.196-.175-.307-.248-.163-.113-.357-.197-.54-.295-.138-.071-.266-.164-.413-.224A5.468 5.468 0 0080.398 2H7.596c-.186 0-.365.037-.55.059-.174.018-.35.018-.517.046a5.713 5.713 0 00-.97.291.356.356 0 01-.039.013c-.027.015-.065.022-.095.035-.215.087-.405.212-.605.328-.11.064-.24.11-.343.186-.025.019-.044.038-.068.059-.122.084-.233.189-.351.288-.138.112-.287.211-.411.342-.161.16-.295.343-.438.521-.084.108-.175.2-.251.306-.114.167-.198.356-.293.539-.068.137-.165.262-.221.412A5.507 5.507 0 002 7.601v72.803c0 .385.037.766.114 1.127.142.684.425 1.336.794 1.913.021.027.032.06.05.08A5.6 5.6 0 007.596 86h72.806C83.479 86 86 83.475 86 80.402V7.601c0-.738-.149-1.436-.411-2.081zM74.798 74.8H13.2V13.2h61.598v61.6z"/></svg><svg width="100" height="100" viewBox="0 0 100 100" id="close-window-red-hover" x="2700" y="2700" xmlns="http://www.w3.org/2000/svg"><path fill="#63211C" d="M51.005 44l11.906 11.91a1.977 1.977 0 010 2.811l-4.197 4.199a1.983 1.983 0 01-2.805 0L43.992 51.006 32.08 62.92a1.985 1.985 0 01-2.807 0l-4.192-4.199a1.983 1.983 0 010-2.811L36.994 44 25.083 32.083a1.975 1.975 0 010-2.805l4.201-4.201a1.973 1.973 0 012.797 0l11.91 11.917 11.918-11.917a1.983 1.983 0 012.805 0l4.197 4.204a1.971 1.971 0 010 2.806L51.005 44z"/><path fill="#63211C" d="M85.589 5.52c-.016-.026-.016-.064-.029-.095-.09-.215-.216-.404-.332-.603-.063-.111-.115-.243-.189-.345-.091-.146-.217-.267-.329-.396-.115-.146-.225-.306-.35-.434-.164-.161-.35-.296-.53-.437-.102-.08-.196-.175-.307-.248-.163-.113-.357-.197-.54-.295-.138-.071-.266-.164-.413-.224A5.468 5.468 0 0080.398 2H7.596c-.186 0-.365.037-.55.059-.174.018-.35.018-.517.046a5.713 5.713 0 00-.97.291.356.356 0 01-.039.013c-.027.015-.065.022-.095.035-.215.087-.405.212-.605.328-.11.064-.24.11-.343.186-.025.019-.044.038-.068.059-.122.084-.233.189-.351.288-.138.112-.287.211-.411.342-.161.16-.295.343-.438.521-.084.108-.175.2-.251.306-.114.167-.198.356-.293.539-.068.137-.165.262-.221.412A5.507 5.507 0 002 7.601v72.803c0 .385.037.766.114 1.127.142.684.425 1.336.794 1.913.021.027.032.06.05.08A5.6 5.6 0 007.596 86h72.806C83.479 86 86 83.475 86 80.402V7.601c0-.738-.149-1.436-.411-2.081zM74.798 74.8H13.2V13.2h61.598v61.6z"/></svg><svg width="100" height="100" viewBox="0 0 100 100" id="close-window-teal" x="2800" y="2800" xmlns="http://www.w3.org/2000/svg"><path fill="#38A2A0" d="M51.005 44l11.906 11.91a1.977 1.977 0 010 2.811l-4.197 4.199a1.984 1.984 0 01-2.805 0L43.992 51.006 32.08 62.92a1.987 1.987 0 01-2.807 0l-4.192-4.199a1.983 1.983 0 010-2.811L36.994 44 25.083 32.083a1.977 1.977 0 010-2.806l4.201-4.201a1.971 1.971 0 012.797 0l11.91 11.917 11.918-11.917a1.98 1.98 0 012.805 0l4.197 4.205a1.971 1.971 0 010 2.806L51.005 44z"/><path fill="#38A2A0" d="M85.589 5.52c-.016-.026-.016-.065-.029-.095-.09-.215-.216-.405-.332-.603-.063-.111-.115-.243-.189-.345-.091-.145-.217-.266-.329-.396-.115-.145-.225-.306-.35-.434-.164-.161-.35-.295-.53-.437-.102-.08-.196-.175-.307-.248-.163-.113-.357-.198-.54-.295-.138-.072-.266-.165-.413-.224A5.468 5.468 0 0080.398 2H7.596c-.186 0-.365.037-.55.058-.174.019-.35.019-.517.047a5.623 5.623 0 00-.97.291.356.356 0 01-.039.013c-.027.014-.065.021-.095.035-.215.087-.405.212-.605.328-.11.063-.24.109-.343.186-.025.019-.044.037-.068.058-.122.084-.233.19-.351.289-.138.111-.287.21-.411.342-.161.159-.295.343-.438.52-.084.108-.175.2-.251.306-.114.168-.198.357-.293.539-.068.138-.165.263-.221.413A5.505 5.505 0 002 7.6v72.804c0 .384.037.765.114 1.126.142.684.425 1.336.794 1.914.021.026.032.059.05.08A5.603 5.603 0 007.596 86h72.806C83.479 86 86 83.475 86 80.402V7.6c0-.737-.149-1.435-.411-2.08zM74.798 74.8H13.2V13.2h61.598v61.6z"/></svg><svg width="100" height="100" viewBox="0 0 100 100" id="close-window-teal-hover" x="2900" y="2900" xmlns="http://www.w3.org/2000/svg"><path fill="#1F605F" d="M51.005 44l11.906 11.91a1.976 1.976 0 010 2.811l-4.197 4.199a1.983 1.983 0 01-2.805 0L43.992 51.006 32.08 62.92a1.985 1.985 0 01-2.807 0l-4.192-4.199a1.983 1.983 0 010-2.811L36.994 44l-11.91-11.917a1.975 1.975 0 010-2.805l4.2-4.201a1.974 1.974 0 012.798 0l11.909 11.917 11.918-11.917a1.983 1.983 0 012.805 0l4.197 4.204a1.97 1.97 0 010 2.806L51.005 44z"/><path fill="#1F605F" d="M85.589 5.52c-.015-.026-.015-.064-.028-.095-.09-.215-.216-.404-.333-.603-.063-.111-.115-.243-.189-.345-.09-.146-.216-.267-.329-.396-.114-.146-.224-.306-.349-.434-.165-.161-.35-.296-.53-.437-.103-.08-.197-.175-.308-.248-.162-.113-.357-.197-.539-.295-.138-.071-.266-.164-.413-.224A5.473 5.473 0 0080.398 2H7.596c-.186 0-.366.037-.549.059-.176.018-.351.018-.519.046a5.713 5.713 0 00-1.008.304c-.027.015-.065.022-.095.035-.215.087-.405.212-.605.328-.11.064-.24.11-.343.186-.026.019-.044.038-.069.059-.121.084-.232.189-.35.288-.138.112-.287.211-.412.342-.16.16-.294.343-.437.521-.084.108-.175.2-.251.306-.114.167-.198.356-.294.539-.067.137-.165.262-.221.412A5.506 5.506 0 002 7.601v72.803c0 .385.037.766.113 1.127.142.684.425 1.336.794 1.913.021.027.032.06.051.08A5.6 5.6 0 007.596 86h72.807C83.479 86 86 83.475 86 80.402V7.601c0-.738-.148-1.436-.411-2.081zM74.799 74.8h-61.6V13.2h61.6v61.6z"/></svg></svg>