<?xml version="1.0" encoding="utf-8"?><!DOCTYPE svg PUBLIC "-//W3C//DTD SVG 1.1//EN" "http://www.w3.org/Graphics/SVG/1.1/DTD/svg11.dtd"><svg width="2000" height="2000" viewBox="0 0 2000 2000" xmlns="http://www.w3.org/2000/svg" xmlns:xlink="http://www.w3.org/1999/xlink"><svg width="100" height="100" viewBox="0 0 100 100" id="fav" xmlns="http://www.w3.org/2000/svg"><path fill="#848484" d="M50 24.695l6.762 13.695 2.086 4.248 4.688.68 15.129 2.195-10.946 10.665-3.387 3.311.797 4.658 2.584 15.064-13.529-7.119L50 69.889l-4.195 2.203-13.518 7.113 2.587-15.059.797-4.664-3.384-3.305-10.942-10.67 15.12-2.195 4.679-.68 2.095-4.248L50 24.695m0-20.341L35.161 34.406 2 39.227l24 23.396-5.663 33.023L50 80.061l29.66 15.586L74 62.623l24-23.391-33.176-4.82L50 4.354z"/></svg><svg width="100" height="100" viewBox="0 0 100 100" id="fav-blue" x="100" y="100" xmlns="http://www.w3.org/2000/svg"><path fill="#327CCB" d="M50 24.695l6.762 13.695 2.086 4.248 4.688.68 15.129 2.195-10.946 10.665-3.387 3.311.797 4.658 2.584 15.064-13.529-7.119L50 69.889l-4.195 2.203-13.518 7.113 2.587-15.059.797-4.664-3.384-3.305-10.942-10.67 15.12-2.195 4.679-.68 2.095-4.248L50 24.695m0-20.341L35.161 34.406 2 39.227l24 23.396-5.663 33.023L50 80.061l29.66 15.586L74 62.623l24-23.391-33.176-4.82L50 4.354z"/></svg><svg width="100" height="100" viewBox="0 0 100 100" id="fav-green" x="200" y="200" xmlns="http://www.w3.org/2000/svg"><path fill="#76A328" d="M50 24.695l6.762 13.695 2.086 4.248 4.688.68 15.129 2.195-10.946 10.665-3.387 3.311.797 4.658 2.584 15.064-13.529-7.119L50 69.889l-4.195 2.203-13.518 7.113 2.587-15.059.797-4.664-3.384-3.305-10.942-10.67 15.12-2.195 4.679-.68 2.095-4.248L50 24.695m0-20.341L35.161 34.406 2 39.227l24 23.396-5.663 33.023L50 80.061l29.66 15.586L74 62.623l24-23.391-33.176-4.82L50 4.354z"/></svg><svg width="100" height="100" viewBox="0 0 100 100" id="fav-orange" x="300" y="300" xmlns="http://www.w3.org/2000/svg"><path fill="#E46E34" d="M50 24.695l6.762 13.695 2.086 4.248 4.688.68 15.129 2.195-10.946 10.665-3.387 3.311.797 4.658 2.584 15.064-13.529-7.119L50 69.889l-4.195 2.203-13.518 7.113 2.587-15.059.797-4.664-3.384-3.305-10.942-10.67 15.12-2.195 4.679-.68 2.095-4.248L50 24.695m0-20.341L35.161 34.406 2 39.227l24 23.396-5.663 33.023L50 80.061l29.66 15.586L74 62.623l24-23.391-33.176-4.82L50 4.354z"/></svg><svg width="100" height="100" viewBox="0 0 100 100" id="fav-purple" x="400" y="400" xmlns="http://www.w3.org/2000/svg"><path fill="#B360BA" d="M50 24.695l6.762 13.695 2.086 4.248 4.688.68 15.129 2.195-10.946 10.665-3.387 3.311.797 4.658 2.584 15.064-13.529-7.119L50 69.889l-4.195 2.203-13.518 7.113 2.587-15.059.797-4.664-3.384-3.305-10.942-10.67 15.12-2.195 4.679-.68 2.095-4.248L50 24.695m0-20.341L35.161 34.406 2 39.227l24 23.396-5.663 33.023L50 80.061l29.66 15.586L74 62.623l24-23.391-33.176-4.82L50 4.354z"/></svg><svg width="100" height="100" viewBox="0 0 100 100" id="fav-red" x="500" y="500" xmlns="http://www.w3.org/2000/svg"><path fill="#B74E4E" d="M50 24.694l6.762 13.696 2.086 4.248 4.688.68 15.129 2.194-10.946 10.665-3.387 3.311.797 4.659 2.584 15.064-13.529-7.119L50 69.889l-4.195 2.203-13.518 7.113 2.587-15.059.797-4.665-3.384-3.305-10.942-10.67 15.12-2.194 4.679-.68 2.095-4.248L50 24.694m0-20.34L35.161 34.406 2 39.226l24 23.397-5.663 33.023L50 80.061l29.66 15.586L74 62.623l24-23.392-33.176-4.819L50 4.354z"/></svg><svg width="100" height="100" viewBox="0 0 100 100" id="fav-teal" x="600" y="600" xmlns="http://www.w3.org/2000/svg"><path fill="#38A2A0" d="M50 24.695l6.762 13.695 2.086 4.248 4.688.68 15.129 2.195-10.946 10.665-3.387 3.311.797 4.658 2.584 15.064-13.529-7.119L50 69.889l-4.195 2.203-13.518 7.113 2.587-15.059.797-4.664-3.384-3.305-10.942-10.67 15.12-2.195 4.679-.68 2.095-4.248L50 24.695m0-20.341L35.161 34.406 2 39.227l24 23.396-5.663 33.023L50 80.061l29.66 15.586L74 62.623l24-23.391-33.176-4.82L50 4.354z"/></svg><svg width="100" height="100" viewBox="0 0 100 100" id="file-text" x="700" y="700" xmlns="http://www.w3.org/2000/svg"><path fill="#8F27AA" d="M85.082 2H14.919c-4.95 0-9.001 4.047-9.001 9v77.996C5.918 93.953 9.97 98 14.919 98h70.163c4.958 0 9-4.047 9-9.004V11c0-4.953-4.042-9-9-9zm0 87.267H14.919V10.729h70.163v78.538z"/><path fill="#8F27AA" d="M24.737 24.911h50.528v6.547H24.737zM24.737 39.447h50.528v6.551H24.737zM24.737 53.997h50.528v6.552H24.737zM24.737 68.549h50.528v6.542H24.737z"/></svg><svg width="100" height="100" viewBox="0 0 100 100" id="file-text-disabled" x="800" y="800" xmlns="http://www.w3.org/2000/svg"><path fill="#C1C1C1" d="M85.082 2H14.919c-4.95 0-9.001 4.047-9.001 9v77.996C5.918 93.953 9.97 98 14.919 98h70.163c4.958 0 9-4.047 9-9.004V11c0-4.953-4.042-9-9-9zm0 87.267H14.919V10.729h70.163v78.538z"/><path fill="#C1C1C1" d="M24.737 24.911h50.528v6.547H24.737zM24.737 39.447h50.528v6.551H24.737zM24.737 53.997h50.528v6.552H24.737zM24.737 68.549h50.528v6.542H24.737z"/></svg><svg width="100" height="100" viewBox="0 0 100 100" id="file-text-hover" x="900" y="900" xmlns="http://www.w3.org/2000/svg"><path fill="#7D1F9B" d="M85.082 2H14.919c-4.95 0-9.001 4.047-9.001 9v77.996C5.918 93.953 9.97 98 14.919 98h70.163c4.958 0 9-4.047 9-9.004V11c0-4.953-4.042-9-9-9zm0 87.267H14.919V10.729h70.163v78.538z"/><path fill="#7D1F9B" d="M24.737 24.911h50.528v6.547H24.737zM24.737 39.447h50.528v6.551H24.737zM24.737 53.997h50.528v6.552H24.737zM24.737 68.549h50.528v6.542H24.737z"/></svg><svg width="100" height="100" viewBox="2.5 18.5 100 100" id="file-text2" x="1000" y="1000" xmlns="http://www.w3.org/2000/svg"><path fill="#AFAFAF" d="M89.277 40.858c1.986 1.979 3.644 5.946 3.644 8.783v61.717a5.145 5.145 0 01-5.144 5.142H17.223a5.145 5.145 0 01-5.144-5.142V25.642a5.145 5.145 0 015.144-5.142h46.555c2.84 0 6.802 1.663 8.783 3.642l16.716 16.716zM65.494 27.783v20.142H85.64c-.323-.913-.805-1.816-1.177-2.196L67.692 28.957c-.378-.365-1.288-.853-2.198-1.174zm20.57 81.859V54.788H63.777a5.147 5.147 0 01-5.145-5.146V27.358H18.936v82.283h67.128v.001zM32.652 63.358c0-.967.75-1.717 1.715-1.717h36.266a1.69 1.69 0 011.715 1.717v3.43c0 .962-.75 1.712-1.715 1.712H34.367c-.965 0-1.715-.75-1.715-1.712v-3.43zm37.987 12c.967 0 1.714.745 1.714 1.707V80.5c0 .957-.747 1.712-1.714 1.712H34.371A1.686 1.686 0 0132.66 80.5v-3.435c0-.957.747-1.707 1.711-1.707h36.268zm0 13.707c.967 0 1.714.75 1.714 1.723v3.424c0 .963-.747 1.723-1.714 1.723H34.371c-.964 0-1.711-.75-1.711-1.723v-3.424c0-.963.747-1.723 1.711-1.723h36.268z"/></svg><svg width="100" height="100" viewBox="-39.5 60.5 100 100" id="file-upload" x="1100" y="1100" xmlns="http://www.w3.org/2000/svg"><path fill="#282828" d="M13.096 148.395v-35.299l8.762 8.748 3.8-3.78L10.5 102.921l-15.158 15.143 3.789 3.78 8.771-8.748v35.299z"/><path fill="#282828" d="M51.315 85.651H12.521l-6.365-12.69-.163-.355h-36.328c-3.95 0-7.165 3.197-7.165 7.12v61.549c0 3.923 3.202 7.12 7.145 7.12h28.577v-4.51H-30.36a2.613 2.613 0 01-2.618-2.62V79.721a2.614 2.614 0 012.613-2.615H3.254l6.331 12.907.072.139h41.685c1.46 0 2.649 1.18 2.649 2.64v48.43a2.634 2.634 0 01-2.63 2.635H22.776v4.515h28.589c3.938 0 7.135-3.202 7.135-7.13V92.767c-.01-3.918-3.227-7.116-7.185-7.116z"/></svg><svg width="100" height="100" viewBox="-39.5 60.5 100 100" id="file-upload-disabled" x="1200" y="1200" xmlns="http://www.w3.org/2000/svg"><path fill="#BCBCBC" d="M13.096 148.395v-35.299l8.762 8.748 3.8-3.78L10.5 102.921l-15.158 15.143 3.789 3.78 8.771-8.748v35.299z"/><path fill="#BCBCBC" d="M51.315 85.651H12.521l-6.365-12.69-.163-.355h-36.328c-3.95 0-7.165 3.197-7.165 7.12v61.549c0 3.923 3.202 7.12 7.145 7.12h28.577v-4.51H-30.36a2.613 2.613 0 01-2.618-2.62V79.721a2.614 2.614 0 012.613-2.615H3.254l6.331 12.907.072.139h41.685c1.46 0 2.649 1.18 2.649 2.64v48.43a2.634 2.634 0 01-2.63 2.635H22.776v4.515h28.589c3.938 0 7.135-3.202 7.135-7.13V92.767c-.01-3.918-3.227-7.116-7.185-7.116z"/></svg><svg width="100" height="100" viewBox="0 0 100 100" id="floppy" x="1300" y="1300" xmlns="http://www.w3.org/2000/svg"><path fill="#2975A8" d="M44 69a5.002 5.002 0 1010.004.006A5.002 5.002 0 0044 69zM10 2c-4.421 0-8 3.579-8 8v80c0 4.422 3.579 8 8 8h80c4.422 0 8-3.578 8-8.001V21.844c0-2.682-1.058-5.063-2.762-6.782l-10.16-10.12a9.942 9.942 0 00-7.083-2.938H10V2zm6.401 10h5.598v15.599A4.388 4.388 0 0026.4 32h5.2a4.386 4.386 0 004.401-4.401V12h37.598c2.442 0 4.4 1.958 4.4 4.401v19.197a4.388 4.388 0 01-4.4 4.401H16.401a4.384 4.384 0 01-4.401-4.4V16.401A4.39 4.39 0 0116.401 12zM36 69c0-7.176 5.818-13 13.001-13 7.184 0 13.002 5.822 13.002 13 0 7.184-5.816 13.006-13.002 13.006C41.817 82.006 36 76.178 36 69z"/></svg><svg width="100" height="100" viewBox="0 0 100 100" id="floppy-disabled" x="1400" y="1400" xmlns="http://www.w3.org/2000/svg"><path fill="#C1C1C1" d="M44 69a5.002 5.002 0 1010.004.006A5.002 5.002 0 0044 69zM10 2c-4.421 0-8 3.579-8 8v80c0 4.422 3.579 8 8 8h80c4.422 0 8-3.578 8-8.001V21.844c0-2.682-1.058-5.063-2.762-6.782l-10.16-10.12a9.942 9.942 0 00-7.083-2.938H10V2zm6.401 10h5.598v15.599A4.388 4.388 0 0026.4 32h5.2a4.386 4.386 0 004.401-4.401V12h37.598c2.442 0 4.4 1.958 4.4 4.401v19.197a4.388 4.388 0 01-4.4 4.401H16.401a4.384 4.384 0 01-4.401-4.4V16.401A4.39 4.39 0 0116.401 12zM36 69c0-7.176 5.818-13 13.001-13 7.184 0 13.002 5.822 13.002 13 0 7.184-5.816 13.006-13.002 13.006C41.817 82.006 36 76.178 36 69z"/></svg><svg width="100" height="100" viewBox="0 0 100 100" id="floppy-hover" x="1500" y="1500" xmlns="http://www.w3.org/2000/svg"><path fill="#236490" d="M44 69a5.002 5.002 0 1010.004.006A5.002 5.002 0 0044 69zM10 2c-4.421 0-8 3.579-8 8v80c0 4.422 3.579 8 8 8h80c4.422 0 8-3.578 8-8.001V21.844c0-2.682-1.058-5.063-2.762-6.782l-10.16-10.12a9.942 9.942 0 00-7.083-2.938H10V2zm6.401 10h5.598v15.599A4.388 4.388 0 0026.4 32h5.2a4.386 4.386 0 004.401-4.401V12h37.598c2.442 0 4.4 1.958 4.4 4.401v19.197a4.388 4.388 0 01-4.4 4.401H16.401a4.384 4.384 0 01-4.401-4.4V16.401A4.39 4.39 0 0116.401 12zM36 69c0-7.176 5.818-13 13.001-13 7.184 0 13.002 5.822 13.002 13 0 7.184-5.816 13.006-13.002 13.006C41.817 82.006 36 76.178 36 69z"/></svg><svg width="100" height="100" viewBox="0 0 100 100" id="go-top" x="1600" y="1600" xmlns="http://www.w3.org/2000/svg"><path fill="#FFF" d="M93.443 89.671L53.84 32.058s-1.604-2.236-3.847-2.236c-2.239 0-3.833 2.236-3.833 2.236L6.543 89.671C3.508 94.25 5.75 98 11.555 98H88.43c5.82 0 8.062-3.75 5.013-8.329zM98 18.009V9.997C98 5.577 97.617 2 93.197 2H6.799C2.382 2 2 5.577 2 9.997v8.012C2 22.423 2.382 26 6.792 26h86.405C97.617 26 98 22.423 98 18.009z"/></svg><svg width="100" height="100" viewBox="0 0 100 100" id="grid" x="1700" y="1700" xmlns="http://www.w3.org/2000/svg"><path fill="#0A7F42" d="M21.545 25A3.458 3.458 0 0025 21.545V5.455c0-.922-.359-1.789-1.014-2.443A3.428 3.428 0 0021.545 2H5.455A3.458 3.458 0 002 5.455v16.092A3.458 3.458 0 005.455 25h16.09zM94.545 25A3.458 3.458 0 0098 21.545V5.455c0-.922-.359-1.789-1.014-2.443A3.428 3.428 0 0094.545 2h-16.09A3.458 3.458 0 0075 5.455v16.092A3.458 3.458 0 0078.455 25h16.09zM58.045 25a3.458 3.458 0 003.455-3.455V5.455c0-.922-.359-1.789-1.014-2.443A3.428 3.428 0 0058.045 2h-16.09A3.458 3.458 0 0038.5 5.455v16.092A3.458 3.458 0 0041.955 25h16.09zM21.545 61.5A3.458 3.458 0 0025 58.045v-16.09c0-.922-.359-1.789-1.014-2.443a3.43 3.43 0 00-2.441-1.012H5.455A3.458 3.458 0 002 41.955v16.092A3.458 3.458 0 005.455 61.5h16.09zM94.545 61.5A3.458 3.458 0 0098 58.045v-16.09c0-.922-.359-1.789-1.014-2.443a3.43 3.43 0 00-2.441-1.012h-16.09A3.458 3.458 0 0075 41.955v16.092a3.458 3.458 0 003.455 3.453h16.09zM58.045 61.5a3.458 3.458 0 003.455-3.455v-16.09c0-.922-.359-1.789-1.014-2.443a3.43 3.43 0 00-2.441-1.012h-16.09a3.458 3.458 0 00-3.455 3.455v16.092a3.458 3.458 0 003.455 3.453h16.09zM21.545 98A3.458 3.458 0 0025 94.545v-16.09c0-.922-.359-1.789-1.014-2.443A3.428 3.428 0 0021.545 75H5.455A3.458 3.458 0 002 78.455v16.092A3.458 3.458 0 005.455 98h16.09zM94.545 98A3.458 3.458 0 0098 94.545v-16.09c0-.922-.359-1.789-1.014-2.443A3.428 3.428 0 0094.545 75h-16.09A3.458 3.458 0 0075 78.455v16.092A3.458 3.458 0 0078.455 98h16.09zM58.045 98a3.458 3.458 0 003.455-3.455v-16.09c0-.922-.359-1.789-1.014-2.443A3.428 3.428 0 0058.045 75h-16.09a3.458 3.458 0 00-3.455 3.455v16.092A3.458 3.458 0 0041.955 98h16.09z"/></svg><svg width="100" height="100" viewBox="0 0 100 100" id="grid-disabled" x="1800" y="1800" xmlns="http://www.w3.org/2000/svg"><path fill="#C1C1C1" d="M21.545 25A3.458 3.458 0 0025 21.545V5.455c0-.922-.359-1.789-1.014-2.443A3.428 3.428 0 0021.545 2H5.455A3.458 3.458 0 002 5.455v16.092A3.458 3.458 0 005.455 25h16.09zM94.545 25A3.458 3.458 0 0098 21.545V5.455c0-.922-.359-1.789-1.014-2.443A3.428 3.428 0 0094.545 2h-16.09A3.458 3.458 0 0075 5.455v16.092A3.458 3.458 0 0078.455 25h16.09zM58.045 25a3.458 3.458 0 003.455-3.455V5.455c0-.922-.359-1.789-1.014-2.443A3.428 3.428 0 0058.045 2h-16.09A3.458 3.458 0 0038.5 5.455v16.092A3.458 3.458 0 0041.955 25h16.09zM21.545 61.5A3.458 3.458 0 0025 58.045v-16.09c0-.922-.359-1.789-1.014-2.443a3.43 3.43 0 00-2.441-1.012H5.455A3.458 3.458 0 002 41.955v16.092A3.458 3.458 0 005.455 61.5h16.09zM94.545 61.5A3.458 3.458 0 0098 58.045v-16.09c0-.922-.359-1.789-1.014-2.443a3.43 3.43 0 00-2.441-1.012h-16.09A3.458 3.458 0 0075 41.955v16.092a3.458 3.458 0 003.455 3.453h16.09zM58.045 61.5a3.458 3.458 0 003.455-3.455v-16.09c0-.922-.359-1.789-1.014-2.443a3.43 3.43 0 00-2.441-1.012h-16.09a3.458 3.458 0 00-3.455 3.455v16.092a3.458 3.458 0 003.455 3.453h16.09zM21.545 98A3.458 3.458 0 0025 94.545v-16.09c0-.922-.359-1.789-1.014-2.443A3.428 3.428 0 0021.545 75H5.455A3.458 3.458 0 002 78.455v16.092A3.458 3.458 0 005.455 98h16.09zM94.545 98A3.458 3.458 0 0098 94.545v-16.09c0-.922-.359-1.789-1.014-2.443A3.428 3.428 0 0094.545 75h-16.09A3.458 3.458 0 0075 78.455v16.092A3.458 3.458 0 0078.455 98h16.09zM58.045 98a3.458 3.458 0 003.455-3.455v-16.09c0-.922-.359-1.789-1.014-2.443A3.428 3.428 0 0058.045 75h-16.09a3.458 3.458 0 00-3.455 3.455v16.092A3.458 3.458 0 0041.955 98h16.09z"/></svg><svg width="100" height="100" viewBox="0 0 100 100" id="grid-hover" x="1900" y="1900" xmlns="http://www.w3.org/2000/svg"><path fill="#07592C" d="M21.545 25A3.458 3.458 0 0025 21.545V5.455c0-.922-.359-1.789-1.014-2.443A3.428 3.428 0 0021.545 2H5.455A3.458 3.458 0 002 5.455v16.092A3.458 3.458 0 005.455 25h16.09zM94.545 25A3.458 3.458 0 0098 21.545V5.455c0-.922-.359-1.789-1.014-2.443A3.428 3.428 0 0094.545 2h-16.09A3.458 3.458 0 0075 5.455v16.092A3.458 3.458 0 0078.455 25h16.09zM58.045 25a3.458 3.458 0 003.455-3.455V5.455c0-.922-.359-1.789-1.014-2.443A3.428 3.428 0 0058.045 2h-16.09A3.458 3.458 0 0038.5 5.455v16.092A3.458 3.458 0 0041.955 25h16.09zM21.545 61.5A3.458 3.458 0 0025 58.045v-16.09c0-.922-.359-1.789-1.014-2.443a3.43 3.43 0 00-2.441-1.012H5.455A3.458 3.458 0 002 41.955v16.092A3.458 3.458 0 005.455 61.5h16.09zM94.545 61.5A3.458 3.458 0 0098 58.045v-16.09c0-.922-.359-1.789-1.014-2.443a3.43 3.43 0 00-2.441-1.012h-16.09A3.458 3.458 0 0075 41.955v16.092a3.458 3.458 0 003.455 3.453h16.09zM58.045 61.5a3.458 3.458 0 003.455-3.455v-16.09c0-.922-.359-1.789-1.014-2.443a3.43 3.43 0 00-2.441-1.012h-16.09a3.458 3.458 0 00-3.455 3.455v16.092a3.458 3.458 0 003.455 3.453h16.09zM21.545 98A3.458 3.458 0 0025 94.545v-16.09c0-.922-.359-1.789-1.014-2.443A3.428 3.428 0 0021.545 75H5.455A3.458 3.458 0 002 78.455v16.092A3.458 3.458 0 005.455 98h16.09zM94.545 98A3.458 3.458 0 0098 94.545v-16.09c0-.922-.359-1.789-1.014-2.443A3.428 3.428 0 0094.545 75h-16.09A3.458 3.458 0 0075 78.455v16.092A3.458 3.458 0 0078.455 98h16.09zM58.045 98a3.458 3.458 0 003.455-3.455v-16.09c0-.922-.359-1.789-1.014-2.443A3.428 3.428 0 0058.045 75h-16.09a3.458 3.458 0 00-3.455 3.455v16.092A3.458 3.458 0 0041.955 98h16.09z"/></svg></svg>