<?xml version="1.0" encoding="utf-8"?><!DOCTYPE svg PUBLIC "-//W3C//DTD SVG 1.1//EN" "http://www.w3.org/Graphics/SVG/1.1/DTD/svg11.dtd"><svg width="2400" height="2400" viewBox="0 0 2400 2400" xmlns="http://www.w3.org/2000/svg" xmlns:xlink="http://www.w3.org/1999/xlink"><svg width="100" height="100" viewBox="0 0 100 100" id="help-blue" xmlns="http://www.w3.org/2000/svg"><path fill="#327CCB" d="M71.816 8.572C65.737 4.19 58.1 2 48.902 2 41.906 2 36 3.54 31.211 6.624c-7.616 4.835-11.657 13.046-12.147 24.617h17.635c0-3.375.99-6.612 2.951-9.74 1.969-3.134 5.31-4.698 10.02-4.698 4.789 0 8.095 1.273 9.891 3.799 1.803 2.545 2.705 5.359 2.705 8.438 0 2.694-1.343 5.151-2.965 7.382-.894 1.293-2.067 2.497-3.528 3.592 0 0-9.563 6.128-13.763 11.059-2.43 2.847-2.647 7.135-2.869 13.269-.005.444.161 1.353 1.683 1.353h13.708c1.369 0 1.654-1.011 1.665-1.462.1-2.229.347-3.374.751-4.666.769-2.438 2.872-4.56 5.225-6.4l4.846-3.347c4.388-3.419 7.881-6.212 9.43-8.413 2.635-3.607 4.49-8.059 4.49-13.338-.003-8.611-3.043-15.1-9.123-19.497zm-23.198 67.7c-6.08-.187-11.085 4.013-11.282 10.614-.188 6.588 4.577 10.929 10.655 11.107 6.341.187 11.223-3.868 11.425-10.47.173-6.592-4.447-11.072-10.798-11.251z"/></svg><svg width="100" height="100" viewBox="0 0 100 100" id="help-blue-hover" x="100" y="100" xmlns="http://www.w3.org/2000/svg"><path fill="#0B486B" d="M71.816 8.572C65.737 4.19 58.1 2 48.902 2 41.906 2 36 3.54 31.211 6.624c-7.616 4.835-11.657 13.046-12.147 24.617h17.635c0-3.375.99-6.612 2.951-9.74 1.969-3.134 5.31-4.698 10.02-4.698 4.789 0 8.095 1.273 9.891 3.799 1.803 2.545 2.705 5.359 2.705 8.438 0 2.694-1.343 5.151-2.965 7.382-.894 1.293-2.067 2.497-3.528 3.592 0 0-9.563 6.128-13.763 11.059-2.43 2.847-2.647 7.135-2.869 13.269-.005.444.161 1.353 1.683 1.353h13.708c1.369 0 1.654-1.011 1.665-1.462.1-2.229.347-3.374.751-4.666.769-2.438 2.872-4.56 5.225-6.4l4.846-3.347c4.388-3.419 7.881-6.212 9.43-8.413 2.635-3.607 4.49-8.059 4.49-13.338-.003-8.611-3.043-15.1-9.123-19.497zm-23.198 67.7c-6.08-.187-11.085 4.013-11.282 10.614-.188 6.588 4.577 10.929 10.655 11.107 6.341.187 11.223-3.868 11.425-10.47.173-6.592-4.447-11.072-10.798-11.251z"/></svg><svg width="100" height="100" viewBox="0 0 100 100" id="help-green" x="200" y="200" xmlns="http://www.w3.org/2000/svg"><path fill="#76A328" d="M71.816 8.572C65.737 4.19 58.1 2 48.902 2 41.906 2 36 3.54 31.211 6.624c-7.616 4.835-11.657 13.046-12.147 24.617h17.635c0-3.375.99-6.612 2.951-9.74 1.969-3.134 5.31-4.698 10.02-4.698 4.789 0 8.095 1.273 9.891 3.799 1.803 2.545 2.705 5.359 2.705 8.438 0 2.694-1.343 5.151-2.965 7.382-.894 1.293-2.067 2.497-3.528 3.592 0 0-9.563 6.128-13.763 11.059-2.43 2.847-2.647 7.135-2.869 13.269-.005.444.161 1.353 1.683 1.353h13.708c1.369 0 1.654-1.011 1.665-1.462.1-2.229.347-3.374.751-4.666.769-2.438 2.872-4.56 5.225-6.4l4.846-3.347c4.388-3.419 7.881-6.212 9.43-8.413 2.635-3.607 4.49-8.059 4.49-13.338-.003-8.611-3.043-15.1-9.123-19.497zm-23.198 67.7c-6.08-.187-11.085 4.013-11.282 10.614-.188 6.588 4.577 10.929 10.655 11.107 6.341.187 11.223-3.868 11.425-10.47.173-6.592-4.447-11.072-10.798-11.251z"/></svg><svg width="100" height="100" viewBox="0 0 100 100" id="help-green-hover" x="300" y="300" xmlns="http://www.w3.org/2000/svg"><path fill="#244805" d="M71.816 8.572C65.737 4.19 58.1 2 48.902 2 41.906 2 36 3.54 31.211 6.624c-7.616 4.835-11.657 13.046-12.147 24.617h17.635c0-3.375.99-6.612 2.951-9.74 1.969-3.134 5.31-4.698 10.02-4.698 4.789 0 8.095 1.273 9.891 3.799 1.803 2.545 2.705 5.359 2.705 8.438 0 2.694-1.343 5.151-2.965 7.382-.894 1.293-2.067 2.497-3.528 3.592 0 0-9.563 6.128-13.763 11.059-2.43 2.847-2.647 7.135-2.869 13.269-.005.444.161 1.353 1.683 1.353h13.708c1.369 0 1.654-1.011 1.665-1.462.1-2.229.347-3.374.751-4.666.769-2.438 2.872-4.56 5.225-6.4l4.846-3.347c4.388-3.419 7.881-6.212 9.43-8.413 2.635-3.607 4.49-8.059 4.49-13.338-.003-8.611-3.043-15.1-9.123-19.497zm-23.198 67.7c-6.08-.187-11.085 4.013-11.282 10.614-.188 6.588 4.577 10.929 10.655 11.107 6.341.187 11.223-3.868 11.425-10.47.173-6.592-4.447-11.072-10.798-11.251z"/></svg><svg width="100" height="100" viewBox="0 0 100 100" id="help-orange" x="400" y="400" xmlns="http://www.w3.org/2000/svg"><path fill="#E46E34" d="M71.816 8.572C65.737 4.19 58.1 2 48.902 2 41.906 2 36 3.54 31.211 6.624c-7.616 4.835-11.657 13.046-12.147 24.617h17.635c0-3.375.99-6.612 2.951-9.74 1.969-3.134 5.31-4.698 10.02-4.698 4.789 0 8.095 1.273 9.891 3.799 1.803 2.545 2.705 5.359 2.705 8.438 0 2.694-1.343 5.151-2.965 7.382-.894 1.293-2.067 2.497-3.528 3.592 0 0-9.563 6.128-13.763 11.059-2.43 2.847-2.647 7.135-2.869 13.269-.005.444.161 1.353 1.683 1.353h13.708c1.369 0 1.654-1.011 1.665-1.462.1-2.229.347-3.374.751-4.666.769-2.438 2.872-4.56 5.225-6.4l4.846-3.347c4.388-3.419 7.881-6.212 9.43-8.413 2.635-3.607 4.49-8.059 4.49-13.338-.003-8.611-3.043-15.1-9.123-19.497zm-23.198 67.7c-6.08-.187-11.085 4.013-11.282 10.614-.188 6.588 4.577 10.929 10.655 11.107 6.341.187 11.223-3.868 11.425-10.47.173-6.592-4.447-11.072-10.798-11.251z"/></svg><svg width="100" height="100" viewBox="0 0 100 100" id="help-orange-hover" x="500" y="500" xmlns="http://www.w3.org/2000/svg"><path fill="#AB4A08" d="M71.816 8.572C65.737 4.19 58.1 2 48.902 2 41.906 2 36 3.54 31.211 6.624c-7.616 4.835-11.657 13.046-12.147 24.617h17.635c0-3.375.99-6.612 2.951-9.74 1.969-3.134 5.31-4.698 10.02-4.698 4.789 0 8.095 1.273 9.891 3.799 1.803 2.545 2.705 5.359 2.705 8.438 0 2.694-1.343 5.151-2.965 7.382-.894 1.293-2.067 2.497-3.528 3.592 0 0-9.563 6.128-13.763 11.059-2.43 2.847-2.647 7.135-2.869 13.269-.005.444.161 1.353 1.683 1.353h13.708c1.369 0 1.654-1.011 1.665-1.462.1-2.229.347-3.374.751-4.666.769-2.438 2.872-4.56 5.225-6.4l4.846-3.347c4.388-3.419 7.881-6.212 9.43-8.413 2.635-3.607 4.49-8.059 4.49-13.338-.003-8.611-3.043-15.1-9.123-19.497zm-23.198 67.7c-6.08-.187-11.085 4.013-11.282 10.614-.188 6.588 4.577 10.929 10.655 11.107 6.341.187 11.223-3.868 11.425-10.47.173-6.592-4.447-11.072-10.798-11.251z"/></svg><svg width="100" height="100" viewBox="0 0 100 100" id="help-purple" x="600" y="600" xmlns="http://www.w3.org/2000/svg"><path fill="#B360BA" d="M71.816 8.572C65.737 4.19 58.1 2 48.902 2 41.906 2 36 3.54 31.211 6.624c-7.616 4.835-11.657 13.046-12.147 24.617h17.635c0-3.375.99-6.612 2.951-9.74 1.969-3.134 5.31-4.698 10.02-4.698 4.789 0 8.095 1.273 9.891 3.799 1.803 2.545 2.705 5.359 2.705 8.438 0 2.694-1.343 5.151-2.965 7.382-.894 1.293-2.067 2.497-3.528 3.592 0 0-9.563 6.128-13.763 11.059-2.43 2.847-2.647 7.135-2.869 13.269-.005.444.161 1.353 1.683 1.353h13.708c1.369 0 1.654-1.011 1.665-1.462.1-2.229.347-3.374.751-4.666.769-2.438 2.872-4.56 5.225-6.4l4.846-3.347c4.388-3.419 7.881-6.212 9.43-8.413 2.635-3.607 4.49-8.059 4.49-13.338-.003-8.611-3.043-15.1-9.123-19.497zm-23.198 67.7c-6.08-.187-11.085 4.013-11.282 10.614-.188 6.588 4.577 10.929 10.655 11.107 6.341.187 11.223-3.868 11.425-10.47.173-6.592-4.447-11.072-10.798-11.251z"/></svg><svg width="100" height="100" viewBox="0 0 100 100" id="help-purple-hover" x="700" y="700" xmlns="http://www.w3.org/2000/svg"><path fill="#663267" d="M71.816 8.572C65.737 4.19 58.1 2 48.902 2 41.906 2 36 3.54 31.211 6.624c-7.616 4.835-11.657 13.046-12.147 24.617h17.635c0-3.375.99-6.612 2.951-9.74 1.969-3.134 5.31-4.698 10.02-4.698 4.789 0 8.095 1.273 9.891 3.799 1.803 2.545 2.705 5.359 2.705 8.438 0 2.694-1.343 5.151-2.965 7.382-.894 1.293-2.067 2.497-3.528 3.592 0 0-9.563 6.128-13.763 11.059-2.43 2.847-2.647 7.135-2.869 13.269-.005.444.161 1.353 1.683 1.353h13.708c1.369 0 1.654-1.011 1.665-1.462.1-2.229.347-3.374.751-4.666.769-2.438 2.872-4.56 5.225-6.4l4.846-3.347c4.388-3.419 7.881-6.212 9.43-8.413 2.635-3.607 4.49-8.059 4.49-13.338-.003-8.611-3.043-15.1-9.123-19.497zm-23.198 67.7c-6.08-.187-11.085 4.013-11.282 10.614-.188 6.588 4.577 10.929 10.655 11.107 6.341.187 11.223-3.868 11.425-10.47.173-6.592-4.447-11.072-10.798-11.251z"/></svg><svg width="100" height="100" viewBox="0 0 100 100" id="help-red" x="800" y="800" xmlns="http://www.w3.org/2000/svg"><path fill="#B74E4E" d="M71.816 8.572C65.737 4.19 58.1 2 48.902 2 41.906 2 36 3.54 31.211 6.624c-7.616 4.835-11.657 13.046-12.147 24.617h17.635c0-3.375.99-6.612 2.951-9.74 1.969-3.134 5.31-4.698 10.02-4.698 4.789 0 8.095 1.273 9.891 3.799 1.803 2.545 2.705 5.359 2.705 8.438 0 2.694-1.343 5.151-2.965 7.382-.894 1.293-2.067 2.497-3.528 3.592 0 0-9.563 6.128-13.763 11.059-2.43 2.847-2.647 7.135-2.869 13.269-.005.444.161 1.353 1.683 1.353h13.708c1.369 0 1.654-1.011 1.665-1.462.1-2.229.347-3.374.751-4.666.769-2.438 2.872-4.56 5.225-6.4l4.846-3.347c4.388-3.419 7.881-6.212 9.43-8.413 2.635-3.607 4.49-8.059 4.49-13.338-.003-8.611-3.043-15.1-9.123-19.497zm-23.198 67.7c-6.08-.187-11.085 4.013-11.282 10.614-.188 6.588 4.577 10.929 10.655 11.107 6.341.187 11.223-3.868 11.425-10.47.173-6.592-4.447-11.072-10.798-11.251z"/></svg><svg width="100" height="100" viewBox="0 0 100 100" id="help-red-hover" x="900" y="900" xmlns="http://www.w3.org/2000/svg"><path fill="#63211C" d="M71.816 8.572C65.737 4.19 58.1 2 48.902 2 41.906 2 36 3.54 31.211 6.624c-7.616 4.835-11.657 13.046-12.147 24.617h17.635c0-3.375.99-6.612 2.951-9.74 1.969-3.134 5.31-4.698 10.02-4.698 4.789 0 8.095 1.273 9.891 3.799 1.803 2.545 2.705 5.359 2.705 8.438 0 2.694-1.343 5.151-2.965 7.382-.894 1.293-2.067 2.497-3.528 3.592 0 0-9.563 6.128-13.763 11.059-2.43 2.847-2.647 7.135-2.869 13.269-.005.444.161 1.353 1.683 1.353h13.708c1.369 0 1.654-1.011 1.665-1.462.1-2.229.347-3.374.751-4.666.769-2.438 2.872-4.56 5.225-6.4l4.846-3.347c4.388-3.419 7.881-6.212 9.43-8.413 2.635-3.607 4.49-8.059 4.49-13.338-.003-8.611-3.043-15.1-9.123-19.497zm-23.198 67.7c-6.08-.187-11.085 4.013-11.282 10.614-.188 6.588 4.577 10.929 10.655 11.107 6.341.187 11.223-3.868 11.425-10.47.173-6.592-4.447-11.072-10.798-11.251z"/></svg><svg width="100" height="100" viewBox="0 0 100 100" id="help-teal" x="1000" y="1000" xmlns="http://www.w3.org/2000/svg"><path fill="#38A2A0" d="M71.816 8.572C65.737 4.19 58.1 2 48.902 2 41.906 2 36 3.54 31.211 6.624c-7.616 4.835-11.657 13.046-12.147 24.617h17.635c0-3.375.99-6.612 2.951-9.74 1.969-3.134 5.31-4.698 10.02-4.698 4.789 0 8.095 1.273 9.891 3.799 1.803 2.545 2.705 5.359 2.705 8.438 0 2.694-1.343 5.151-2.965 7.382-.894 1.293-2.067 2.497-3.528 3.592 0 0-9.563 6.128-13.763 11.059-2.43 2.847-2.647 7.135-2.869 13.269-.005.444.161 1.353 1.683 1.353h13.708c1.369 0 1.654-1.011 1.665-1.462.1-2.229.347-3.374.751-4.666.769-2.438 2.872-4.56 5.225-6.4l4.846-3.347c4.388-3.419 7.881-6.212 9.43-8.413 2.635-3.607 4.49-8.059 4.49-13.338-.003-8.611-3.043-15.1-9.123-19.497zm-23.198 67.7c-6.08-.187-11.085 4.013-11.282 10.614-.188 6.588 4.577 10.929 10.655 11.107 6.341.187 11.223-3.868 11.425-10.47.173-6.592-4.447-11.072-10.798-11.251z"/></svg><svg width="100" height="100" viewBox="0 0 100 100" id="help-teal-hover" x="1100" y="1100" xmlns="http://www.w3.org/2000/svg"><path fill="#1F605F" d="M71.816 8.572C65.737 4.19 58.1 2 48.902 2 41.906 2 36 3.54 31.211 6.624c-7.616 4.835-11.657 13.046-12.147 24.617h17.635c0-3.375.99-6.612 2.951-9.74 1.969-3.134 5.31-4.698 10.02-4.698 4.789 0 8.095 1.273 9.891 3.799 1.803 2.545 2.705 5.359 2.705 8.438 0 2.694-1.343 5.151-2.965 7.382-.894 1.293-2.067 2.497-3.528 3.592 0 0-9.563 6.128-13.763 11.059-2.43 2.847-2.647 7.135-2.869 13.269-.005.444.161 1.353 1.683 1.353h13.708c1.369 0 1.654-1.011 1.665-1.462.1-2.229.347-3.374.751-4.666.769-2.438 2.872-4.56 5.225-6.4l4.846-3.347c4.388-3.419 7.881-6.212 9.43-8.413 2.635-3.607 4.49-8.059 4.49-13.338-.003-8.611-3.043-15.1-9.123-19.497zm-23.198 67.7c-6.08-.187-11.085 4.013-11.282 10.614-.188 6.588 4.577 10.929 10.655 11.107 6.341.187 11.223-3.868 11.425-10.47.173-6.592-4.447-11.072-10.798-11.251z"/></svg><svg width="100" height="100" viewBox="0 0 100 100" id="home-blue" x="1200" y="1200" xmlns="http://www.w3.org/2000/svg"><path fill="#327CCB" d="M84.298 55.805v28.582c0 1.035-.382 1.923-1.131 2.67-.758.757-1.651 1.132-2.678 1.132H57.622v-22.86H42.384v22.857H19.516c-1.033 0-1.924-.375-2.681-1.131-.751-.746-1.128-1.644-1.128-2.671v-28.58c0-.036.007-.105.031-.18a.833.833 0 00.031-.178l34.235-28.224 34.235 28.224a.96.96 0 01.059.359zm13.273-4.11l-3.689 4.402c-.314.358-.735.562-1.252.656h-.173c-.521 0-.937-.14-1.253-.418L49.996 21.989 8.798 56.337c-.476.315-.952.459-1.432.417-.513-.079-.934-.297-1.251-.656l-3.69-4.402c-.319-.398-.456-.867-.418-1.396.043-.547.261-.967.656-1.286l42.804-35.661c1.274-1.031 2.782-1.541 4.529-1.541 1.751 0 3.261.51 4.529 1.541l14.527 12.142V13.89c0-.559.177-1.012.54-1.361.359-.364.817-.544 1.365-.544h11.437c.559 0 1.017.18 1.365.544.354.355.541.814.541 1.361v24.288l13.038 10.837c.4.319.618.739.656 1.286.036.535-.099 1.004-.423 1.394z"/></svg><svg width="100" height="100" viewBox="0 0 100 100" id="home-blue-hover" x="1300" y="1300" xmlns="http://www.w3.org/2000/svg"><path fill="#0B486B" d="M84.298 55.805v28.582c0 1.035-.382 1.923-1.131 2.67-.758.757-1.651 1.132-2.678 1.132H57.622v-22.86H42.384v22.857H19.516c-1.033 0-1.924-.375-2.681-1.131-.751-.746-1.128-1.644-1.128-2.671v-28.58c0-.036.007-.105.031-.18a.833.833 0 00.031-.178l34.235-28.224 34.235 28.224a.96.96 0 01.059.359zm13.273-4.11l-3.689 4.402c-.314.358-.735.562-1.252.656h-.173c-.521 0-.937-.14-1.253-.418L49.996 21.989 8.798 56.337c-.476.315-.952.459-1.432.417-.513-.079-.934-.297-1.251-.656l-3.69-4.402c-.319-.398-.456-.867-.418-1.396.043-.547.261-.967.656-1.286l42.804-35.661c1.274-1.031 2.782-1.541 4.529-1.541 1.751 0 3.261.51 4.529 1.541l14.527 12.142V13.89c0-.559.177-1.012.54-1.361.359-.364.817-.544 1.365-.544h11.437c.559 0 1.017.18 1.365.544.354.355.541.814.541 1.361v24.288l13.038 10.837c.4.319.618.739.656 1.286.036.535-.099 1.004-.423 1.394z"/></svg><svg width="100" height="100" viewBox="0 0 100 100" id="home-green" x="1400" y="1400" xmlns="http://www.w3.org/2000/svg"><path fill="#76A328" d="M84.298 55.805v28.582c0 1.035-.382 1.923-1.131 2.67-.758.757-1.651 1.132-2.678 1.132H57.622v-22.86H42.384v22.857H19.516c-1.033 0-1.924-.375-2.681-1.131-.751-.746-1.128-1.644-1.128-2.671v-28.58c0-.036.007-.105.031-.18a.833.833 0 00.031-.178l34.235-28.224 34.235 28.224a.96.96 0 01.059.359zm13.273-4.11l-3.689 4.402c-.314.358-.735.562-1.252.656h-.173c-.521 0-.937-.14-1.253-.418L49.996 21.989 8.798 56.337c-.476.315-.952.459-1.432.417-.513-.079-.934-.297-1.251-.656l-3.69-4.402c-.319-.398-.456-.867-.418-1.396.043-.547.261-.967.656-1.286l42.804-35.661c1.274-1.031 2.782-1.541 4.529-1.541 1.751 0 3.261.51 4.529 1.541l14.527 12.142V13.89c0-.559.177-1.012.54-1.361.359-.364.817-.544 1.365-.544h11.437c.559 0 1.017.18 1.365.544.354.355.541.814.541 1.361v24.288l13.038 10.837c.4.319.618.739.656 1.286.036.535-.099 1.004-.423 1.394z"/></svg><svg width="100" height="100" viewBox="0 0 100 100" id="home-green-hover" x="1500" y="1500" xmlns="http://www.w3.org/2000/svg"><path fill="#244805" d="M84.299 55.804v28.582c0 1.035-.382 1.924-1.131 2.67-.758.758-1.651 1.133-2.679 1.133H57.623v-22.86H42.385v22.856H19.517c-1.034 0-1.924-.375-2.681-1.131-.751-.746-1.128-1.644-1.128-2.671V55.804c0-.037.006-.105.03-.181a.771.771 0 00.031-.179l34.236-28.223 34.234 28.223c.033.075.06.202.06.36zm13.272-4.11l-3.688 4.402c-.313.357-.735.562-1.252.655h-.174c-.521 0-.937-.14-1.252-.418L49.997 21.988 8.798 56.336c-.477.315-.953.459-1.432.417-.514-.079-.935-.297-1.252-.656l-3.69-4.402c-.319-.397-.456-.866-.418-1.396.043-.547.261-.967.656-1.285l42.804-35.662c1.274-1.031 2.782-1.541 4.529-1.541 1.751 0 3.261.51 4.528 1.541L69.05 25.495V13.889c0-.56.176-1.013.54-1.361.359-.364.817-.543 1.364-.543h11.438c.56 0 1.018.18 1.365.543.354.354.541.813.541 1.361v24.289l13.038 10.837c.399.318.618.738.656 1.285.038.535-.096 1.004-.421 1.394z"/></svg><svg width="100" height="100" viewBox="0 0 100 100" id="home-orange" x="1600" y="1600" xmlns="http://www.w3.org/2000/svg"><path fill="#E46E34" d="M84.299 55.804v28.582c0 1.035-.382 1.924-1.131 2.67-.758.758-1.651 1.133-2.679 1.133H57.623v-22.86H42.385v22.856H19.517c-1.034 0-1.924-.375-2.681-1.131-.751-.746-1.128-1.644-1.128-2.671V55.804c0-.037.006-.105.03-.181a.771.771 0 00.031-.179l34.236-28.223 34.234 28.223c.033.075.06.202.06.36zm13.272-4.11l-3.688 4.402c-.313.357-.735.562-1.252.655h-.174c-.521 0-.937-.14-1.252-.418L49.997 21.988 8.798 56.336c-.477.315-.953.459-1.432.417-.514-.079-.935-.297-1.252-.656l-3.69-4.402c-.319-.397-.456-.866-.418-1.396.043-.547.261-.967.656-1.285l42.804-35.662c1.274-1.031 2.782-1.541 4.529-1.541 1.751 0 3.261.51 4.528 1.541L69.05 25.495V13.889c0-.56.176-1.013.54-1.361.359-.364.817-.543 1.364-.543h11.438c.56 0 1.018.18 1.365.543.354.354.541.813.541 1.361v24.289l13.038 10.837c.399.318.618.738.656 1.285.038.535-.096 1.004-.421 1.394z"/></svg><svg width="100" height="100" viewBox="0 0 100 100" id="home-orange-hover" x="1700" y="1700" xmlns="http://www.w3.org/2000/svg"><path fill="#AB4A08" d="M84.298 55.805v28.58c0 1.035-.382 1.924-1.131 2.672-.758.756-1.65 1.131-2.678 1.131H57.624v-22.86h-15.24v22.857H19.516c-1.034 0-1.924-.375-2.68-1.131-.751-.746-1.128-1.645-1.128-2.672V55.805c0-.037.006-.105.03-.181a.773.773 0 00.03-.179l34.236-28.223 34.235 28.223a.966.966 0 01.059.36zm13.275-4.112l-3.69 4.402c-.315.358-.735.563-1.253.656h-.173c-.521 0-.937-.141-1.253-.419L49.996 21.988 8.798 56.335c-.477.315-.953.461-1.432.418-.515-.078-.936-.297-1.252-.655l-3.69-4.402c-.319-.398-.456-.867-.418-1.396.043-.549.26-.968.656-1.287l42.804-35.661c1.274-1.031 2.781-1.54 4.529-1.54 1.751 0 3.262.51 4.53 1.54l14.526 12.143V13.889c0-.559.177-1.012.539-1.36.359-.364.817-.543 1.364-.543h11.438c.559 0 1.018.18 1.365.543.354.355.54.814.54 1.36v24.288l13.039 10.837c.399.319.617.738.656 1.287.038.534-.096 1.004-.419 1.392z"/></svg><svg width="100" height="100" viewBox="0 0 100 100" id="home-purple" x="1800" y="1800" xmlns="http://www.w3.org/2000/svg"><path fill="#B360BA" d="M84.298 55.805v28.582c0 1.035-.382 1.923-1.131 2.67-.758.757-1.651 1.132-2.678 1.132H57.622v-22.86H42.384v22.857H19.516c-1.033 0-1.924-.375-2.681-1.131-.751-.746-1.128-1.644-1.128-2.671v-28.58c0-.036.007-.105.031-.18a.833.833 0 00.031-.178l34.235-28.224 34.235 28.224a.96.96 0 01.059.359zm13.273-4.11l-3.689 4.402c-.314.358-.735.562-1.252.656h-.173c-.521 0-.937-.14-1.253-.418L49.996 21.989 8.798 56.337c-.476.315-.952.459-1.432.417-.513-.079-.934-.297-1.251-.656l-3.69-4.402c-.319-.398-.456-.867-.418-1.396.043-.547.261-.967.656-1.286l42.804-35.661c1.274-1.031 2.782-1.541 4.529-1.541 1.751 0 3.261.51 4.529 1.541l14.527 12.142V13.89c0-.559.177-1.012.54-1.361.359-.364.817-.544 1.365-.544h11.437c.559 0 1.017.18 1.365.544.354.355.541.814.541 1.361v24.288l13.038 10.837c.4.319.618.739.656 1.286.036.535-.099 1.004-.423 1.394z"/></svg><svg width="100" height="100" viewBox="0 0 100 100" id="home-purple-hover" x="1900" y="1900" xmlns="http://www.w3.org/2000/svg"><path fill="#663267" d="M84.298 55.805v28.582c0 1.035-.382 1.923-1.131 2.67-.758.757-1.651 1.132-2.678 1.132H57.622v-22.86H42.384v22.857H19.516c-1.033 0-1.924-.375-2.681-1.131-.751-.746-1.128-1.644-1.128-2.671v-28.58c0-.036.007-.105.031-.18a.833.833 0 00.031-.178l34.235-28.224 34.235 28.224a.96.96 0 01.059.359zm13.273-4.11l-3.689 4.402c-.314.358-.735.562-1.252.656h-.173c-.521 0-.937-.14-1.253-.418L49.996 21.989 8.798 56.337c-.476.315-.952.459-1.432.417-.513-.079-.934-.297-1.251-.656l-3.69-4.402c-.319-.398-.456-.867-.418-1.396.043-.547.261-.967.656-1.286l42.804-35.661c1.274-1.031 2.782-1.541 4.529-1.541 1.751 0 3.261.51 4.529 1.541l14.527 12.142V13.89c0-.559.177-1.012.54-1.361.359-.364.817-.544 1.365-.544h11.437c.559 0 1.017.18 1.365.544.354.355.541.814.541 1.361v24.288l13.038 10.837c.4.319.618.739.656 1.286.036.535-.099 1.004-.423 1.394z"/></svg><svg width="100" height="100" viewBox="0 0 100 100" id="home-red" x="2000" y="2000" xmlns="http://www.w3.org/2000/svg"><path fill="#B74E4E" d="M84.298 55.805v28.582c0 1.035-.382 1.923-1.131 2.67-.758.757-1.651 1.132-2.678 1.132H57.622v-22.86H42.384v22.857H19.516c-1.033 0-1.924-.375-2.681-1.131-.751-.746-1.128-1.644-1.128-2.671v-28.58c0-.036.007-.105.031-.18a.833.833 0 00.031-.178l34.235-28.224 34.235 28.224a.96.96 0 01.059.359zm13.273-4.11l-3.689 4.402c-.314.358-.735.562-1.252.656h-.173c-.521 0-.937-.14-1.253-.418L49.996 21.989 8.798 56.337c-.476.315-.952.459-1.432.417-.513-.079-.934-.297-1.251-.656l-3.69-4.402c-.319-.398-.456-.867-.418-1.396.043-.547.261-.967.656-1.286l42.804-35.661c1.274-1.031 2.782-1.541 4.529-1.541 1.751 0 3.261.51 4.529 1.541l14.527 12.142V13.89c0-.559.177-1.012.54-1.361.359-.364.817-.544 1.365-.544h11.437c.559 0 1.017.18 1.365.544.354.355.541.814.541 1.361v24.288l13.038 10.837c.4.319.618.739.656 1.286.036.535-.099 1.004-.423 1.394z"/></svg><svg width="100" height="100" viewBox="0 0 100 100" id="home-red-hover" x="2100" y="2100" xmlns="http://www.w3.org/2000/svg"><path fill="#63211C" d="M84.298 55.805v28.582c0 1.035-.382 1.923-1.131 2.67-.758.757-1.651 1.132-2.678 1.132H57.622v-22.86H42.384v22.857H19.516c-1.033 0-1.924-.375-2.681-1.131-.751-.746-1.128-1.644-1.128-2.671v-28.58c0-.036.007-.105.031-.18a.833.833 0 00.031-.178l34.235-28.224 34.235 28.224a.96.96 0 01.059.359zm13.273-4.11l-3.689 4.402c-.314.358-.735.562-1.252.656h-.173c-.521 0-.937-.14-1.253-.418L49.996 21.989 8.798 56.337c-.476.315-.952.459-1.432.417-.513-.079-.934-.297-1.251-.656l-3.69-4.402c-.319-.398-.456-.867-.418-1.396.043-.547.261-.967.656-1.286l42.804-35.661c1.274-1.031 2.782-1.541 4.529-1.541 1.751 0 3.261.51 4.529 1.541l14.527 12.142V13.89c0-.559.177-1.012.54-1.361.359-.364.817-.544 1.365-.544h11.437c.559 0 1.017.18 1.365.544.354.355.541.814.541 1.361v24.288l13.038 10.837c.4.319.618.739.656 1.286.036.535-.099 1.004-.423 1.394z"/></svg><svg width="100" height="100" viewBox="0 0 100 100" id="home-teal" x="2200" y="2200" xmlns="http://www.w3.org/2000/svg"><path fill="#38A2A0" d="M84.298 55.805v28.582c0 1.035-.382 1.923-1.131 2.67-.758.757-1.651 1.132-2.678 1.132H57.622v-22.86H42.384v22.857H19.516c-1.033 0-1.924-.375-2.681-1.131-.751-.746-1.128-1.644-1.128-2.671v-28.58c0-.036.007-.105.031-.18a.833.833 0 00.031-.178l34.235-28.224 34.235 28.224a.96.96 0 01.059.359zm13.273-4.11l-3.689 4.402c-.314.358-.735.562-1.252.656h-.173c-.521 0-.937-.14-1.253-.418L49.996 21.989 8.798 56.337c-.476.315-.952.459-1.432.417-.513-.079-.934-.297-1.251-.656l-3.69-4.402c-.319-.398-.456-.867-.418-1.396.043-.547.261-.967.656-1.286l42.804-35.661c1.274-1.031 2.782-1.541 4.529-1.541 1.751 0 3.261.51 4.529 1.541l14.527 12.142V13.89c0-.559.177-1.012.54-1.361.359-.364.817-.544 1.365-.544h11.437c.559 0 1.017.18 1.365.544.354.355.541.814.541 1.361v24.288l13.038 10.837c.4.319.618.739.656 1.286.036.535-.099 1.004-.423 1.394z"/></svg><svg width="100" height="100" viewBox="0 0 100 100" id="home-teal-hover" x="2300" y="2300" xmlns="http://www.w3.org/2000/svg"><path fill="#1F605F" d="M84.298 55.805v28.582c0 1.035-.382 1.923-1.131 2.67-.758.757-1.651 1.132-2.678 1.132H57.622v-22.86H42.384v22.857H19.516c-1.033 0-1.924-.375-2.681-1.131-.751-.746-1.128-1.644-1.128-2.671v-28.58c0-.036.007-.105.031-.18a.833.833 0 00.031-.178l34.235-28.224 34.235 28.224a.96.96 0 01.059.359zm13.273-4.11l-3.689 4.402c-.314.358-.735.562-1.252.656h-.173c-.521 0-.937-.14-1.253-.418L49.996 21.989 8.798 56.337c-.476.315-.952.459-1.432.417-.513-.079-.934-.297-1.251-.656l-3.69-4.402c-.319-.398-.456-.867-.418-1.396.043-.547.261-.967.656-1.286l42.804-35.661c1.274-1.031 2.782-1.541 4.529-1.541 1.751 0 3.261.51 4.529 1.541l14.527 12.142V13.89c0-.559.177-1.012.54-1.361.359-.364.817-.544 1.365-.544h11.437c.559 0 1.017.18 1.365.544.354.355.541.814.541 1.361v24.288l13.038 10.837c.4.319.618.739.656 1.286.036.535-.099 1.004-.423 1.394z"/></svg></svg>