<?xml version="1.0" encoding="utf-8"?><!DOCTYPE svg PUBLIC "-//W3C//DTD SVG 1.1//EN" "http://www.w3.org/Graphics/SVG/1.1/DTD/svg11.dtd"><svg width="3100" height="3100" viewBox="0 0 3100 3100" xmlns="http://www.w3.org/2000/svg" xmlns:xlink="http://www.w3.org/1999/xlink"><svg width="100" height="100" viewBox="0 0 100 100" id="info" xmlns="http://www.w3.org/2000/svg"><path fill="#327CCB" d="M57.797 70.084c-.021.012-1.869.619-3.463.619-.887 0-1.235-.183-1.355-.261-.557-.39-1.599-1.12.184-4.667l3.333-6.645c1.976-3.942 2.267-7.768.817-10.754-1.187-2.443-3.469-4.118-6.407-4.719a16.087 16.087 0 00-3.188-.326c-6.164 0-10.312 3.599-10.485 3.755a1.67 1.67 0 00-.34 2.086 1.66 1.66 0 001.983.74c.016-.005 1.863-.623 3.461-.623.88 0 1.226.18 1.338.261.565.389 1.613 1.129-.168 4.672l-3.334 6.65c-1.98 3.948-2.268 7.766-.818 10.75 1.191 2.448 3.461 4.119 6.406 4.719 1.044.209 2.123.324 3.179.324 6.167 0 10.312-3.601 10.488-3.75a1.669 1.669 0 00.341-2.095c-.394-.675-1.226-.977-1.972-.736zM63.334 31.67A8.335 8.335 0 0155 40.005a8.336 8.336 0 110-16.671 8.333 8.333 0 018.334 8.336z"/><path fill="#327CCB" d="M50 10c22.063 0 39.999 17.944 39.999 40 0 22.057-17.937 39.999-39.999 39.999-22.06 0-40-17.94-40-39.999 0-22.057 17.94-40 40-40m0-8C23.488 2 2 23.488 2 50c0 26.51 21.488 48 48 48 26.51 0 48-21.49 48-48C98 23.488 76.51 2 50 2z"/></svg><svg width="100" height="100" viewBox="0 0 100 100" id="info-disabled" x="100" y="100" xmlns="http://www.w3.org/2000/svg"><path fill="#C1C1C1" d="M57.797 70.084c-.021.012-1.869.619-3.463.619-.887 0-1.235-.183-1.355-.261-.557-.39-1.599-1.12.184-4.667l3.333-6.645c1.976-3.942 2.267-7.768.817-10.754-1.187-2.443-3.469-4.118-6.407-4.719a16.087 16.087 0 00-3.188-.326c-6.164 0-10.312 3.599-10.485 3.755a1.67 1.67 0 00-.34 2.086 1.66 1.66 0 001.983.74c.016-.005 1.863-.623 3.461-.623.88 0 1.226.18 1.338.261.565.389 1.613 1.129-.168 4.672l-3.334 6.65c-1.98 3.948-2.268 7.766-.818 10.75 1.191 2.448 3.461 4.119 6.406 4.719 1.044.209 2.123.324 3.179.324 6.167 0 10.312-3.601 10.488-3.75a1.669 1.669 0 00.341-2.095c-.394-.675-1.226-.977-1.972-.736zM63.334 31.67A8.335 8.335 0 0155 40.005a8.336 8.336 0 110-16.671 8.333 8.333 0 018.334 8.336z"/><path fill="#C1C1C1" d="M50 10c22.063 0 39.999 17.944 39.999 40 0 22.057-17.937 39.999-39.999 39.999-22.06 0-40-17.94-40-39.999 0-22.057 17.94-40 40-40m0-8C23.488 2 2 23.488 2 50c0 26.51 21.488 48 48 48 26.51 0 48-21.49 48-48C98 23.488 76.51 2 50 2z"/></svg><svg width="100" height="100" viewBox="0 0 100 100" id="info-hover" x="200" y="200" xmlns="http://www.w3.org/2000/svg"><path fill="#0F5D8A" d="M57.797 70.084c-.021.012-1.869.619-3.463.619-.887 0-1.235-.183-1.355-.261-.557-.39-1.599-1.12.184-4.667l3.333-6.645c1.976-3.942 2.267-7.768.817-10.754-1.187-2.443-3.469-4.118-6.407-4.719a16.087 16.087 0 00-3.188-.326c-6.164 0-10.312 3.599-10.485 3.755a1.67 1.67 0 00-.34 2.086 1.66 1.66 0 001.983.74c.016-.005 1.863-.623 3.461-.623.88 0 1.226.18 1.338.261.565.389 1.613 1.129-.168 4.672l-3.334 6.65c-1.98 3.948-2.268 7.766-.818 10.75 1.191 2.448 3.461 4.119 6.406 4.719 1.044.209 2.123.324 3.179.324 6.167 0 10.312-3.601 10.488-3.75a1.669 1.669 0 00.341-2.095c-.394-.675-1.226-.977-1.972-.736zM63.334 31.67A8.335 8.335 0 0155 40.005a8.336 8.336 0 110-16.671 8.333 8.333 0 018.334 8.336z"/><path fill="#0F5D8A" d="M50 10c22.063 0 39.999 17.944 39.999 40 0 22.057-17.937 39.999-39.999 39.999-22.06 0-40-17.94-40-39.999 0-22.057 17.94-40 40-40m0-8C23.488 2 2 23.488 2 50c0 26.51 21.488 48 48 48 26.51 0 48-21.49 48-48C98 23.488 76.51 2 50 2z"/></svg><svg width="100" height="100" viewBox="0 0 100 100" id="info2" x="300" y="300" xmlns="http://www.w3.org/2000/svg"><path fill="#C93232" d="M57.797 70.084c-.021.012-1.869.619-3.463.619-.887 0-1.235-.183-1.355-.261-.557-.39-1.599-1.12.184-4.667l3.333-6.645c1.976-3.942 2.267-7.768.817-10.754-1.187-2.443-3.469-4.118-6.407-4.719a16.087 16.087 0 00-3.188-.326c-6.164 0-10.312 3.599-10.485 3.755a1.67 1.67 0 00-.34 2.086 1.66 1.66 0 001.983.74c.016-.005 1.863-.623 3.461-.623.88 0 1.226.18 1.338.261.565.389 1.613 1.129-.168 4.672l-3.334 6.65c-1.98 3.948-2.268 7.766-.818 10.75 1.191 2.448 3.461 4.119 6.406 4.719 1.044.209 2.123.324 3.179.324 6.167 0 10.312-3.601 10.488-3.75a1.669 1.669 0 00.341-2.095c-.394-.675-1.226-.977-1.972-.736zM63.334 31.67A8.335 8.335 0 0155 40.005a8.336 8.336 0 110-16.671 8.333 8.333 0 018.334 8.336z"/><path fill="#C93232" d="M50 10c22.063 0 39.999 17.944 39.999 40 0 22.057-17.937 39.999-39.999 39.999-22.06 0-40-17.94-40-39.999 0-22.057 17.94-40 40-40m0-8C23.488 2 2 23.488 2 50c0 26.51 21.488 48 48 48 26.51 0 48-21.49 48-48C98 23.488 76.51 2 50 2z"/></svg><svg width="100" height="100" viewBox="0 0 100 100" id="info2-disabled" x="400" y="400" xmlns="http://www.w3.org/2000/svg"><path fill="#C1C1C1" d="M57.797 70.084c-.021.012-1.869.619-3.463.619-.887 0-1.235-.183-1.355-.261-.557-.39-1.599-1.12.184-4.667l3.333-6.645c1.976-3.942 2.267-7.768.817-10.754-1.187-2.443-3.469-4.118-6.407-4.719a16.087 16.087 0 00-3.188-.326c-6.164 0-10.312 3.599-10.485 3.755a1.67 1.67 0 00-.34 2.086 1.66 1.66 0 001.983.74c.016-.005 1.863-.623 3.461-.623.88 0 1.226.18 1.338.261.565.389 1.613 1.129-.168 4.672l-3.334 6.65c-1.98 3.948-2.268 7.766-.818 10.75 1.191 2.448 3.461 4.119 6.406 4.719 1.044.209 2.123.324 3.179.324 6.167 0 10.312-3.601 10.488-3.75a1.669 1.669 0 00.341-2.095c-.394-.675-1.226-.977-1.972-.736zM63.334 31.67A8.335 8.335 0 0155 40.005a8.336 8.336 0 110-16.671 8.333 8.333 0 018.334 8.336z"/><path fill="#C1C1C1" d="M50 10c22.063 0 39.999 17.944 39.999 40 0 22.057-17.937 39.999-39.999 39.999-22.06 0-40-17.94-40-39.999 0-22.057 17.94-40 40-40m0-8C23.488 2 2 23.488 2 50c0 26.51 21.488 48 48 48 26.51 0 48-21.49 48-48C98 23.488 76.51 2 50 2z"/></svg><svg width="100" height="100" viewBox="0 0 100 100" id="info2-hover" x="500" y="500" xmlns="http://www.w3.org/2000/svg"><path fill="#AD1717" d="M57.797 70.084c-.021.012-1.869.619-3.463.619-.887 0-1.235-.183-1.355-.261-.557-.39-1.599-1.12.184-4.667l3.333-6.645c1.976-3.942 2.267-7.768.817-10.754-1.187-2.443-3.469-4.118-6.407-4.719a16.087 16.087 0 00-3.188-.326c-6.164 0-10.312 3.599-10.485 3.755a1.67 1.67 0 00-.34 2.086 1.66 1.66 0 001.983.74c.016-.005 1.863-.623 3.461-.623.88 0 1.226.18 1.338.261.565.389 1.613 1.129-.168 4.672l-3.334 6.65c-1.98 3.948-2.268 7.766-.818 10.75 1.191 2.448 3.461 4.119 6.406 4.719 1.044.209 2.123.324 3.179.324 6.167 0 10.312-3.601 10.488-3.75a1.669 1.669 0 00.341-2.095c-.394-.675-1.226-.977-1.972-.736zM63.334 31.67A8.335 8.335 0 0155 40.005a8.336 8.336 0 110-16.671 8.333 8.333 0 018.334 8.336z"/><path fill="#AD1717" d="M50 10c22.063 0 39.999 17.944 39.999 40 0 22.057-17.937 39.999-39.999 39.999-22.06 0-40-17.94-40-39.999 0-22.057 17.94-40 40-40m0-8C23.488 2 2 23.488 2 50c0 26.51 21.488 48 48 48 26.51 0 48-21.49 48-48C98 23.488 76.51 2 50 2z"/></svg><svg width="100" height="100" viewBox="0 0 100 100" id="less" x="600" y="600" xmlns="http://www.w3.org/2000/svg"><path fill="#FFF" d="M73.201 54.801H26.799c-2.4 0-4-2.401-4-4.801 0-2.4 2.4-4.8 4.8-4.8h45.602c2.398 0 4.797 2.4 4.797 4.8-.797 2.399-2.397 4.801-4.797 4.801z"/><path fill="#FFF" d="M77.201 98H22.799C11.6 98 2 88.399 2 77.201V22.799C2 11.6 11.6 2 22.799 2h55.2C88.399 2 98 11.6 98 22.799v55.2C98 88.399 88.399 98 77.201 98zM23.6 7.601c-8.799 0-15.2 7.2-15.2 15.2V76.4c0 8.802 7.201 15.2 15.2 15.2h53.602c8.799 0 15.2-7.2 15.2-15.2V23.6c0-8.799-7.2-15.2-15.2-15.2H23.6v-.799z"/></svg><svg width="100" height="100" viewBox="0 0 100 100" id="less-circle" x="700" y="700" xmlns="http://www.w3.org/2000/svg"><path fill="#555" d="M50 2C23.41 2 2 23.398 2 50c0 26.6 21.41 48 48 48 26.592 0 48-21.398 48-48S76.592 2 50 2zm25 53H25V45h50v10z"/></svg><svg width="100" height="100" viewBox="0 0 100 100" id="less-circle-hover" x="800" y="800" xmlns="http://www.w3.org/2000/svg"><path fill="#2D2D2D" d="M50 2C23.41 2 2 23.398 2 50c0 26.6 21.41 48 48 48 26.592 0 48-21.398 48-48S76.592 2 50 2zm25 53H25V45h50v10z"/></svg><svg width="100" height="100" viewBox="0 0 100 100" id="link" x="900" y="900" xmlns="http://www.w3.org/2000/svg"><g fill="#32A597"><path d="M271.857 9.15C267.243 4.54 261.109 2 254.588 2c-6.523 0-12.656 2.54-17.271 7.151l-17.689 17.688c-4.605 4.605-7.143 10.737-7.143 17.266s2.537 12.661 7.144 17.267c1.272 1.271 2.962 1.969 4.759 1.969s3.486-.698 4.758-1.971a6.683 6.683 0 001.975-4.761 6.677 6.677 0 00-1.975-4.758c-2.065-2.065-3.203-4.816-3.203-7.748s1.138-5.683 3.203-7.749l17.692-17.688a10.889 10.889 0 017.751-3.208 10.88 10.88 0 017.749 3.208c2.065 2.066 3.205 4.817 3.205 7.748s-1.14 5.684-3.205 7.75l-8.083 8.084a6.69 6.69 0 00-1.977 4.762 6.675 6.675 0 001.977 4.756 6.682 6.682 0 004.756 1.971 6.683 6.683 0 004.758-1.971l8.09-8.086C276.464 39.077 279 32.945 279 26.417c0-6.529-2.536-12.661-7.143-17.267z"/><path d="M237.611 36.659c-1.797 0-3.487.7-4.758 1.972-2.623 2.624-2.623 6.894 0 9.517 2.065 2.067 3.205 4.819 3.205 7.75s-1.14 5.682-3.205 7.746l-17.688 17.687a10.908 10.908 0 01-7.754 3.21 10.9 10.9 0 01-7.752-3.208c-2.066-2.065-3.203-4.815-3.203-7.747s1.139-5.684 3.203-7.75l8.087-8.085a6.685 6.685 0 001.974-4.76 6.689 6.689 0 00-1.971-4.757c-1.271-1.272-2.961-1.974-4.759-1.974s-3.489.701-4.761 1.973l-8.088 8.087C185.537 60.926 183 67.057 183 73.584c0 6.529 2.537 12.661 7.143 17.268 4.613 4.609 10.746 7.148 17.27 7.148s12.656-2.539 17.27-7.148l17.691-17.688c9.521-9.521 9.52-25.013-.001-34.533a6.682 6.682 0 00-4.762-1.972z"/></g><g fill="#1F8778"><path d="M90.857 9.15C86.243 4.54 80.109 2 73.588 2c-6.523 0-12.656 2.54-17.271 7.151l-17.69 17.688c-4.606 4.605-7.143 10.737-7.143 17.266s2.537 12.661 7.144 17.267a6.687 6.687 0 004.758 1.969 6.681 6.681 0 004.759-1.971 6.682 6.682 0 001.974-4.761 6.68 6.68 0 00-1.974-4.758c-2.066-2.065-3.203-4.816-3.203-7.748s1.137-5.683 3.203-7.749l17.692-17.688a10.889 10.889 0 017.751-3.208 10.88 10.88 0 017.749 3.208c2.065 2.066 3.205 4.817 3.205 7.748s-1.14 5.684-3.205 7.75l-8.083 8.084a6.69 6.69 0 00-1.977 4.762 6.675 6.675 0 001.977 4.756 6.682 6.682 0 004.756 1.971 6.683 6.683 0 004.758-1.971l8.09-8.086C95.464 39.077 98 32.945 98 26.417c0-6.529-2.536-12.661-7.143-17.267z"/><path d="M56.611 36.659c-1.797 0-3.487.7-4.758 1.972a6.737 6.737 0 000 9.517c2.065 2.067 3.205 4.819 3.205 7.75s-1.14 5.682-3.205 7.746L34.166 81.331a10.908 10.908 0 01-7.754 3.21 10.903 10.903 0 01-7.752-3.208c-2.066-2.065-3.203-4.815-3.203-7.747s1.138-5.684 3.203-7.75l8.087-8.085a6.676 6.676 0 001.973-4.76 6.692 6.692 0 00-1.97-4.757 6.685 6.685 0 00-4.759-1.974 6.686 6.686 0 00-4.76 1.973L9.143 56.32C4.537 60.926 2 67.057 2 73.584c0 6.529 2.537 12.661 7.143 17.268C13.756 95.461 19.889 98 26.412 98s12.657-2.539 17.27-7.148l17.691-17.688c9.521-9.521 9.52-25.013-.001-34.533a6.678 6.678 0 00-4.761-1.972z"/></g></svg><svg width="100" height="100" viewBox="0 0 100 100" id="link-disabled" x="1000" y="1000" xmlns="http://www.w3.org/2000/svg"><g fill="#C1C1C1"><path d="M90.857 9.15C86.243 4.54 80.109 2 73.588 2a24.273 24.273 0 00-17.271 7.151l-17.69 17.688c-4.606 4.605-7.143 10.737-7.143 17.266s2.537 12.661 7.144 17.267a6.691 6.691 0 004.758 1.969 6.685 6.685 0 004.759-1.971 6.681 6.681 0 001.974-4.76 6.68 6.68 0 00-1.974-4.759 10.877 10.877 0 01-3.203-7.747c0-2.931 1.137-5.683 3.203-7.749l17.692-17.688c2.069-2.069 4.822-3.208 7.751-3.208s5.681 1.139 7.749 3.208a10.883 10.883 0 013.205 7.748c0 2.931-1.139 5.684-3.205 7.75l-8.083 8.084a6.685 6.685 0 00-1.976 4.762 6.678 6.678 0 001.976 4.757 6.682 6.682 0 004.756 1.971c1.797 0 3.486-.7 4.757-1.971l8.091-8.087C95.464 39.077 98 32.945 98 26.417c0-6.529-2.536-12.661-7.143-17.267z"/><path d="M56.612 36.659c-1.798 0-3.488.7-4.759 1.972-2.623 2.624-2.623 6.894 0 9.517a10.89 10.89 0 013.205 7.75c0 2.932-1.139 5.682-3.205 7.747L34.166 81.331a10.908 10.908 0 01-7.754 3.21c-2.929 0-5.681-1.14-7.752-3.208-2.066-2.065-3.203-4.816-3.203-7.747s1.138-5.683 3.203-7.75l8.087-8.085a6.676 6.676 0 001.973-4.76 6.692 6.692 0 00-1.97-4.757 6.685 6.685 0 00-4.759-1.974 6.686 6.686 0 00-4.76 1.973L9.143 56.32C4.537 60.926 2 67.057 2 73.584c0 6.529 2.537 12.661 7.143 17.267A24.27 24.27 0 0026.412 98c6.523 0 12.657-2.539 17.27-7.149l17.691-17.688c9.521-9.521 9.52-25.013-.001-34.533a6.68 6.68 0 00-4.76-1.971z"/></g></svg><svg width="100" height="100" viewBox="0 0 100 100" id="link-hover" x="1100" y="1100" xmlns="http://www.w3.org/2000/svg"><g fill="#146658"><path d="M90.857 9.15C86.243 4.54 80.109 2 73.588 2c-6.523 0-12.656 2.54-17.271 7.151l-17.69 17.688c-4.606 4.605-7.143 10.737-7.143 17.266s2.537 12.661 7.144 17.267a6.687 6.687 0 004.758 1.969 6.681 6.681 0 004.759-1.971 6.682 6.682 0 001.974-4.761 6.68 6.68 0 00-1.974-4.758c-2.066-2.065-3.203-4.816-3.203-7.748s1.137-5.683 3.203-7.749l17.692-17.688a10.889 10.889 0 017.751-3.208 10.88 10.88 0 017.749 3.208c2.065 2.066 3.205 4.817 3.205 7.748s-1.14 5.684-3.205 7.75l-8.083 8.084a6.69 6.69 0 00-1.977 4.762 6.675 6.675 0 001.977 4.756 6.682 6.682 0 004.756 1.971 6.683 6.683 0 004.758-1.971l8.09-8.086C95.464 39.077 98 32.945 98 26.417c0-6.529-2.536-12.661-7.143-17.267z"/><path d="M56.611 36.659c-1.797 0-3.487.7-4.758 1.972a6.737 6.737 0 000 9.517c2.065 2.067 3.205 4.819 3.205 7.75s-1.14 5.682-3.205 7.746L34.166 81.331a10.908 10.908 0 01-7.754 3.21 10.903 10.903 0 01-7.752-3.208c-2.066-2.065-3.203-4.815-3.203-7.747s1.138-5.684 3.203-7.75l8.087-8.085a6.676 6.676 0 001.973-4.76 6.692 6.692 0 00-1.97-4.757 6.685 6.685 0 00-4.759-1.974 6.686 6.686 0 00-4.76 1.973L9.143 56.32C4.537 60.926 2 67.057 2 73.584c0 6.529 2.537 12.661 7.143 17.268C13.756 95.461 19.889 98 26.412 98s12.657-2.539 17.27-7.148l17.691-17.688c9.521-9.521 9.52-25.013-.001-34.533a6.678 6.678 0 00-4.761-1.972z"/></g></svg><svg width="100" height="100" viewBox="0 0 100 100" id="list" x="1200" y="1200" xmlns="http://www.w3.org/2000/svg"><path fill="#4D4D4D" d="M57.68 16.589c-2.879-1.92-6.719-1.92-8.64.959-1.92 1.92-1.92 5.76.96 8.64l22.079 18.24H7.76c-2.879 0-5.76 2.879-5.76 5.76 0 2.879 2.88 5.761 5.76 5.761h64.319L50 75.148c-2.88 1.919-2.88 5.759-.96 7.681.96.96 2.881 1.92 4.8 1.92.961 0 2.879 0 3.84-.959L98 50.188 57.68 16.589z"/></svg><svg width="100" height="100" viewBox="0 0 100 100" id="list-level5" x="1300" y="1300" xmlns="http://www.w3.org/2000/svg"><path fill="#444" d="M11.216 44.703l20.62 19.172S74.508 21.622 93.914 7.953L98 12.224S60.828 54.5 37.771 92.047C26.834 78.434 15.575 64.774 2 53.685c.028.018 8.325-8.128 9.216-8.982z"/></svg><svg width="100" height="100" viewBox="0 0 100 100" id="list2" x="1400" y="1400" xmlns="http://www.w3.org/2000/svg"><path fill="#0A7F42" d="M94.545 26.805A3.458 3.458 0 0098 23.35v-9.895c0-.922-.359-1.789-1.014-2.443A3.428 3.428 0 0094.545 10h-58.09A3.458 3.458 0 0033 13.455v9.896a3.458 3.458 0 003.455 3.453l58.09.001zM15.545 26.805A3.458 3.458 0 0019 23.35v-9.895c0-.922-.359-1.789-1.014-2.443A3.428 3.428 0 0015.545 10H5.455A3.458 3.458 0 002 13.455v9.896a3.458 3.458 0 003.455 3.453l10.09.001zM94.545 90A3.458 3.458 0 0098 86.545V76.65c0-.922-.359-1.789-1.014-2.443a3.434 3.434 0 00-2.441-1.012h-58.09A3.458 3.458 0 0033 76.65v9.896A3.458 3.458 0 0036.455 90h58.09zM15.545 90A3.458 3.458 0 0019 86.545V76.65c0-.922-.359-1.789-1.014-2.443a3.434 3.434 0 00-2.441-1.012H5.455A3.458 3.458 0 002 76.65v9.896A3.458 3.458 0 005.455 90h10.09zM94.545 58.402A3.458 3.458 0 0098 54.947v-9.894c0-.922-.359-1.789-1.014-2.443a3.434 3.434 0 00-2.441-1.012h-58.09A3.458 3.458 0 0033 45.053v9.896a3.458 3.458 0 003.455 3.453h58.09zM15.545 58.402A3.458 3.458 0 0019 54.947v-9.894c0-.922-.359-1.789-1.014-2.443a3.434 3.434 0 00-2.441-1.012H5.455A3.46 3.46 0 002 45.054v9.896a3.458 3.458 0 003.455 3.452h10.09z"/></svg><svg width="100" height="100" viewBox="0 0 100 100" id="list2-disabled" x="1500" y="1500" xmlns="http://www.w3.org/2000/svg"><path fill="#C1C1C1" d="M94.545 26.805A3.458 3.458 0 0098 23.35v-9.895c0-.922-.359-1.789-1.014-2.443A3.428 3.428 0 0094.545 10h-58.09A3.458 3.458 0 0033 13.455v9.896a3.458 3.458 0 003.455 3.453l58.09.001zM15.545 26.805A3.458 3.458 0 0019 23.35v-9.895c0-.922-.359-1.789-1.014-2.443A3.428 3.428 0 0015.545 10H5.455A3.458 3.458 0 002 13.455v9.896a3.458 3.458 0 003.455 3.453l10.09.001zM94.545 90A3.458 3.458 0 0098 86.545V76.65c0-.922-.359-1.789-1.014-2.443a3.434 3.434 0 00-2.441-1.012h-58.09A3.458 3.458 0 0033 76.65v9.896A3.458 3.458 0 0036.455 90h58.09zM15.545 90A3.458 3.458 0 0019 86.545V76.65c0-.922-.359-1.789-1.014-2.443a3.434 3.434 0 00-2.441-1.012H5.455A3.458 3.458 0 002 76.65v9.896A3.458 3.458 0 005.455 90h10.09zM94.545 58.402A3.458 3.458 0 0098 54.947v-9.894c0-.922-.359-1.789-1.014-2.443a3.434 3.434 0 00-2.441-1.012h-58.09A3.458 3.458 0 0033 45.053v9.896a3.458 3.458 0 003.455 3.453h58.09zM15.545 58.402A3.458 3.458 0 0019 54.947v-9.894c0-.922-.359-1.789-1.014-2.443a3.434 3.434 0 00-2.441-1.012H5.455A3.46 3.46 0 002 45.054v9.896a3.458 3.458 0 003.455 3.452h10.09z"/></svg><svg width="100" height="100" viewBox="0 0 100 100" id="list2-hover" x="1600" y="1600" xmlns="http://www.w3.org/2000/svg"><path fill="#07592C" d="M94.545 26.805A3.458 3.458 0 0098 23.35v-9.895c0-.922-.359-1.789-1.014-2.443A3.428 3.428 0 0094.545 10h-58.09A3.458 3.458 0 0033 13.455v9.896a3.458 3.458 0 003.455 3.453l58.09.001zM15.545 26.805A3.458 3.458 0 0019 23.35v-9.895c0-.922-.359-1.789-1.014-2.443A3.428 3.428 0 0015.545 10H5.455A3.458 3.458 0 002 13.455v9.896a3.458 3.458 0 003.455 3.453l10.09.001zM94.545 90A3.458 3.458 0 0098 86.545V76.65c0-.922-.359-1.789-1.014-2.443a3.434 3.434 0 00-2.441-1.012h-58.09A3.458 3.458 0 0033 76.65v9.896A3.458 3.458 0 0036.455 90h58.09zM15.545 90A3.458 3.458 0 0019 86.545V76.65c0-.922-.359-1.789-1.014-2.443a3.434 3.434 0 00-2.441-1.012H5.455A3.458 3.458 0 002 76.65v9.896A3.458 3.458 0 005.455 90h10.09zM94.545 58.402A3.458 3.458 0 0098 54.947v-9.894c0-.922-.359-1.789-1.014-2.443a3.434 3.434 0 00-2.441-1.012h-58.09A3.458 3.458 0 0033 45.053v9.896a3.458 3.458 0 003.455 3.453h58.09zM15.545 58.402A3.458 3.458 0 0019 54.947v-9.894c0-.922-.359-1.789-1.014-2.443a3.434 3.434 0 00-2.441-1.012H5.455A3.46 3.46 0 002 45.054v9.896a3.458 3.458 0 003.455 3.452h10.09z"/></svg><svg width="100" height="100" viewBox="0 0 100 100" id="location" x="1700" y="1700" xmlns="http://www.w3.org/2000/svg"><path d="M58.631 43.438a8.724 8.724 0 01-8.729 8.729 8.72 8.72 0 01-8.726-8.729c0-4.814 3.902-8.728 8.726-8.728 4.82 0 8.729 3.913 8.729 8.728z"/><path d="M76.185 19.457H23.821c-2.399 0-4.364 1.959-4.364 4.354v52.364c0 2.399 1.965 4.368 4.364 4.368h52.364c2.399 0 4.358-1.969 4.358-4.368V23.811a4.367 4.367 0 00-4.358-4.354zM49.993 75.884c-4.214 0-19.635-21.28-19.635-32.127 0-10.847 8.793-19.641 19.63-19.641 10.845 0 19.638 8.803 19.644 19.641.004 10.847-16.525 32.127-19.639 32.127z"/></svg><svg width="100" height="100" viewBox="0 0 100 100" id="location-on" x="1800" y="1800" xmlns="http://www.w3.org/2000/svg"><path d="M89.271 19.457H98v61.086h-8.729V19.457zM71.816 19.457h8.727v61.086h-8.727V19.457zM41.174 43.438a8.723 8.723 0 01-8.729 8.729 8.72 8.72 0 01-8.726-8.729c0-4.814 3.902-8.728 8.726-8.728 4.822-.001 8.729 3.913 8.729 8.728z"/><path d="M58.729 19.457H6.364c-2.4 0-4.364 1.959-4.364 4.354v52.365c0 2.398 1.964 4.367 4.364 4.367h52.364c2.398 0 4.357-1.969 4.357-4.367V23.811a4.366 4.366 0 00-4.356-4.354zM32.537 75.885c-4.215 0-19.637-21.281-19.637-32.129 0-10.846 8.794-19.641 19.632-19.641 10.844 0 19.639 8.803 19.644 19.641.006 10.848-16.524 32.129-19.639 32.129z"/></svg><svg width="100" height="100" viewBox="0 0 100 100" id="log-out-blue" x="1900" y="1900" xmlns="http://www.w3.org/2000/svg"><path fill="#327CCB" d="M93.634 50.004L63.09 26.006v13.09H50v21.82h13.09v13.087l30.544-23.999z"/><path fill="#327CCB" d="M71.816 75.469v5.078H45.642V19.453h26.175v5.078l6.551 5.141V12.913H45.642V2L6.367 11.699v80.965L45.642 98V87.091h32.725V70.335l-6.551 5.134zm-34.473-20.01a2.63 2.63 0 01-2.617 2.63 2.634 2.634 0 01-2.62-2.63V44.551a2.615 2.615 0 012.62-2.617 2.617 2.617 0 012.617 2.617v10.908z"/></svg><svg width="100" height="100" viewBox="0 0 100 100" id="log-out-blue-hover" x="2000" y="2000" xmlns="http://www.w3.org/2000/svg"><path fill="#0B486B" d="M93.634 50.004L63.09 26.006v13.09H50v21.82h13.09v13.087l30.544-23.999z"/><path fill="#0B486B" d="M71.816 75.469v5.078H45.642V19.453h26.175v5.078l6.551 5.141V12.913H45.642V2L6.367 11.699v80.965L45.642 98V87.091h32.725V70.335l-6.551 5.134zm-34.473-20.01a2.63 2.63 0 01-2.617 2.63 2.634 2.634 0 01-2.62-2.63V44.551a2.615 2.615 0 012.62-2.617 2.617 2.617 0 012.617 2.617v10.908z"/></svg><svg width="100" height="100" viewBox="0 0 100 100" id="log-out-green" x="2100" y="2100" xmlns="http://www.w3.org/2000/svg"><path fill="#76A328" d="M93.634 50.004L63.09 26.006v13.09H50v21.82h13.09v13.087l30.544-23.999z"/><path fill="#76A328" d="M71.816 75.469v5.078H45.642V19.453h26.175v5.078l6.551 5.141V12.913H45.642V2L6.367 11.699v80.965L45.642 98V87.091h32.725V70.335l-6.551 5.134zm-34.473-20.01a2.63 2.63 0 01-2.617 2.63 2.634 2.634 0 01-2.62-2.63V44.551a2.615 2.615 0 012.62-2.617 2.617 2.617 0 012.617 2.617v10.908z"/></svg><svg width="100" height="100" viewBox="0 0 100 100" id="log-out-green-hover" x="2200" y="2200" xmlns="http://www.w3.org/2000/svg"><path fill="#244805" d="M93.634 50.004L63.09 26.006v13.09H50v21.82h13.09v13.087l30.544-23.999z"/><path fill="#244805" d="M71.816 75.469v5.078H45.642V19.453h26.175v5.078l6.551 5.141V12.913H45.642V2L6.367 11.699v80.965L45.642 98V87.091h32.725V70.335l-6.551 5.134zm-34.473-20.01a2.63 2.63 0 01-2.617 2.63 2.634 2.634 0 01-2.62-2.63V44.551a2.615 2.615 0 012.62-2.617 2.617 2.617 0 012.617 2.617v10.908z"/></svg><svg width="100" height="100" viewBox="0 0 100 100" id="log-out-orange" x="2300" y="2300" xmlns="http://www.w3.org/2000/svg"><path fill="#E46E34" d="M93.634 50.004L63.09 26.006v13.09H50v21.82h13.09v13.087l30.544-23.999z"/><path fill="#E46E34" d="M71.816 75.469v5.078H45.642V19.453h26.175v5.078l6.551 5.141V12.913H45.642V2L6.367 11.699v80.965L45.642 98V87.091h32.725V70.335l-6.551 5.134zm-34.473-20.01a2.63 2.63 0 01-2.617 2.63 2.634 2.634 0 01-2.62-2.63V44.551a2.615 2.615 0 012.62-2.617 2.617 2.617 0 012.617 2.617v10.908z"/></svg><svg width="100" height="100" viewBox="0 0 100 100" id="log-out-orange-hover" x="2400" y="2400" xmlns="http://www.w3.org/2000/svg"><path fill="#AB4A08" d="M93.634 50.004L63.09 26.006v13.09H50v21.82h13.09v13.087l30.544-23.999z"/><path fill="#AB4A08" d="M71.816 75.469v5.078H45.642V19.453h26.175v5.078l6.551 5.141V12.913H45.642V2L6.367 11.699v80.965L45.642 98V87.091h32.725V70.335l-6.551 5.134zm-34.473-20.01a2.63 2.63 0 01-2.617 2.63 2.634 2.634 0 01-2.62-2.63V44.551a2.615 2.615 0 012.62-2.617 2.617 2.617 0 012.617 2.617v10.908z"/></svg><svg width="100" height="100" viewBox="0 0 100 100" id="log-out-purple" x="2500" y="2500" xmlns="http://www.w3.org/2000/svg"><path fill="#B360BA" d="M93.634 50.004L63.09 26.006v13.09H50v21.82h13.09v13.087l30.544-23.999z"/><path fill="#B360BA" d="M71.816 75.469v5.078H45.642V19.453h26.175v5.078l6.551 5.141V12.913H45.642V2L6.367 11.699v80.965L45.642 98V87.091h32.725V70.335l-6.551 5.134zm-34.473-20.01a2.63 2.63 0 01-2.617 2.63 2.634 2.634 0 01-2.62-2.63V44.551a2.615 2.615 0 012.62-2.617 2.617 2.617 0 012.617 2.617v10.908z"/></svg><svg width="100" height="100" viewBox="0 0 100 100" id="log-out-purple-hover" x="2600" y="2600" xmlns="http://www.w3.org/2000/svg"><path fill="#663267" d="M93.634 50.004L63.09 26.006v13.09H50v21.82h13.09v13.087l30.544-23.999z"/><path fill="#663267" d="M71.816 75.469v5.078H45.642V19.453h26.175v5.078l6.551 5.141V12.913H45.642V2L6.367 11.699v80.965L45.642 98V87.091h32.725V70.335l-6.551 5.134zm-34.473-20.01a2.63 2.63 0 01-2.617 2.63 2.634 2.634 0 01-2.62-2.63V44.551a2.615 2.615 0 012.62-2.617 2.617 2.617 0 012.617 2.617v10.908z"/></svg><svg width="100" height="100" viewBox="0 0 100 100" id="log-out-red" x="2700" y="2700" xmlns="http://www.w3.org/2000/svg"><path fill="#B74E4E" d="M93.634 50.004L63.09 26.006v13.09H50v21.82h13.09v13.087l30.544-23.999z"/><path fill="#B74E4E" d="M71.816 75.469v5.078H45.642V19.453h26.175v5.078l6.551 5.141V12.913H45.642V2L6.367 11.699v80.965L45.642 98V87.091h32.725V70.335l-6.551 5.134zm-34.473-20.01a2.63 2.63 0 01-2.617 2.63 2.634 2.634 0 01-2.62-2.63V44.551a2.615 2.615 0 012.62-2.617 2.617 2.617 0 012.617 2.617v10.908z"/></svg><svg width="100" height="100" viewBox="0 0 100 100" id="log-out-red-hover" x="2800" y="2800" xmlns="http://www.w3.org/2000/svg"><path fill="#63211C" d="M93.634 50.004L63.09 26.006v13.09H50v21.82h13.09v13.087l30.544-23.999z"/><path fill="#63211C" d="M71.816 75.469v5.078H45.642V19.453h26.175v5.078l6.551 5.141V12.913H45.642V2L6.367 11.699v80.965L45.642 98V87.091h32.725V70.335l-6.551 5.134zm-34.473-20.01a2.63 2.63 0 01-2.617 2.63 2.634 2.634 0 01-2.62-2.63V44.551a2.615 2.615 0 012.62-2.617 2.617 2.617 0 012.617 2.617v10.908z"/></svg><svg width="100" height="100" viewBox="0 0 100 100" id="log-out-teal" x="2900" y="2900" xmlns="http://www.w3.org/2000/svg"><path fill="#38A2A0" d="M93.634 50.004L63.09 26.006v13.09H50v21.82h13.09v13.087l30.544-23.999z"/><path fill="#38A2A0" d="M71.816 75.469v5.078H45.642V19.453h26.175v5.078l6.551 5.141V12.913H45.642V2L6.367 11.699v80.965L45.642 98V87.091h32.725V70.335l-6.551 5.134zm-34.473-20.01a2.63 2.63 0 01-2.617 2.63 2.634 2.634 0 01-2.62-2.63V44.551a2.615 2.615 0 012.62-2.617 2.617 2.617 0 012.617 2.617v10.908z"/></svg><svg width="100" height="100" viewBox="0 0 100 100" id="log-out-teal-hover" x="3000" y="3000" xmlns="http://www.w3.org/2000/svg"><path fill="#1F605F" d="M93.634 50.004L63.09 26.006v13.09H50v21.82h13.09v13.087l30.544-23.999z"/><path fill="#1F605F" d="M71.816 75.469v5.078H45.642V19.453h26.175v5.078l6.551 5.141V12.913H45.642V2L6.367 11.699v80.965L45.642 98V87.091h32.725V70.335l-6.551 5.134zm-34.473-20.01a2.63 2.63 0 01-2.617 2.63 2.634 2.634 0 01-2.62-2.63V44.551a2.615 2.615 0 012.62-2.617 2.617 2.617 0 012.617 2.617v10.908z"/></svg></svg>