<?xml version="1.0" encoding="utf-8"?><!DOCTYPE svg PUBLIC "-//W3C//DTD SVG 1.1//EN" "http://www.w3.org/Graphics/SVG/1.1/DTD/svg11.dtd"><svg width="2700" height="2700" viewBox="0 0 2700 2700" xmlns="http://www.w3.org/2000/svg" xmlns:xlink="http://www.w3.org/1999/xlink"><svg width="100" height="100" viewBox="0 0 100 100" id="off-job" xmlns="http://www.w3.org/2000/svg"><path fill="#8D23A9" d="M40.473 38.307c10.026 0 18.16-8.125 18.16-18.149C58.633 10.131 50.499 2 40.473 2s-18.145 8.131-18.145 18.157c.001 10.014 8.119 18.15 18.145 18.15zM89.244 73.397l-.241.438c-.904 1.64-1.9 2.673-2.959 3.071-.903.339-2.244.438-3.393.243-2.686-.452-4.888-2.199-7.449-4.229-1.699-1.347-3.456-2.739-5.565-3.947-2.712-1.554-5.483-2.332-7.595-2.837-3.253-.775-5.963-.934-8.657-.507-2.274.363-4.852.774-7.388 2.15l-.439.238 4.768 8.789.439-.238c1.034-.56 2.569-.805 4.194-1.063 1.342-.215 2.834-.104 4.76.357 2.171.52 3.697 1.07 4.947 1.787 1.468.842 2.86 1.946 4.337 3.117 3.173 2.515 6.769 5.364 11.987 6.244a17.49 17.49 0 002.88.237c2.02 0 3.989-.34 5.696-.983 3.353-1.262 6.108-3.819 8.192-7.602l.242-.435-8.756-4.83z"/><path fill="#8D23A9" d="M65.454 42.5c-12.131 0-22 11.888-22 26.5s9.869 26.5 22 26.5 22-11.888 22-26.5-9.869-26.5-22-26.5zm0 43c-6.505 0-12-7.556-12-16.5s5.495-16.5 12-16.5 12 7.556 12 16.5-5.495 16.5-12 16.5zM39.26 57.531c1.367-4.192 3.461-7.971 6.102-11.133l-2.147-.198c-.956-.093-1.822-.17-2.748-.17C19.256 46.03 2 63.285 2 84.495c0 2.862 2.322 5.19 5.176 5.19h2.778a5.194 5.194 0 005.187-5.19c0-13.291 10.282-24.264 23.497-25.21.19-.591.401-1.174.622-1.754z"/></svg><svg width="100" height="100" viewBox="0 0 100 100" id="off-job-disabled" x="100" y="100" xmlns="http://www.w3.org/2000/svg"><path fill="#C1C1C1" d="M40.473 38.307c10.026 0 18.16-8.125 18.16-18.149C58.633 10.131 50.499 2 40.473 2s-18.145 8.131-18.145 18.157c.001 10.014 8.119 18.15 18.145 18.15zM89.244 73.396l-.241.438c-.903 1.64-1.899 2.673-2.959 3.071-.903.339-2.244.438-3.394.242-2.686-.451-4.887-2.198-7.448-4.229-1.699-1.348-3.456-2.738-5.565-3.947-2.712-1.554-5.482-2.332-7.595-2.836-3.253-.775-5.963-.935-8.657-.508-2.273.363-4.852.773-7.388 2.15l-.439.238 4.768 8.789.439-.238c1.033-.561 2.568-.805 4.193-1.063 1.342-.215 2.834-.104 4.76.356 2.172.521 3.697 1.07 4.947 1.787 1.468.843 2.859 1.947 4.337 3.117 3.173 2.516 6.769 5.364 11.987 6.244a17.49 17.49 0 002.88.237c2.021 0 3.989-.34 5.696-.983 3.353-1.262 6.107-3.818 8.191-7.602l.244-.432-8.756-4.831z"/><path fill="#C1C1C1" d="M65.454 42.5c-12.132 0-22 11.889-22 26.5s9.868 26.5 22 26.5c12.131 0 22-11.889 22-26.5s-9.869-26.5-22-26.5zm0 43c-6.505 0-12-7.557-12-16.5s5.495-16.5 12-16.5 12 7.557 12 16.5-5.495 16.5-12 16.5zM39.26 57.531c1.367-4.192 3.461-7.971 6.102-11.133l-2.147-.198c-.956-.093-1.822-.17-2.748-.17C19.256 46.03 2 63.285 2 84.495c0 2.862 2.322 5.19 5.176 5.19h2.778a5.194 5.194 0 005.187-5.19c0-13.291 10.282-24.265 23.497-25.21.19-.592.401-1.174.622-1.754z"/></svg><svg width="100" height="100" viewBox="0 0 100 100" id="off-job-hover" x="200" y="200" xmlns="http://www.w3.org/2000/svg"><path fill="#5A1172" d="M40.473 38.307c10.026 0 18.16-8.125 18.16-18.149C58.633 10.131 50.499 2 40.473 2s-18.145 8.131-18.145 18.157c.001 10.014 8.119 18.15 18.145 18.15zM89.244 73.397l-.241.438c-.904 1.64-1.9 2.673-2.959 3.071-.903.339-2.244.438-3.393.243-2.686-.452-4.888-2.199-7.449-4.229-1.699-1.347-3.456-2.739-5.565-3.947-2.712-1.554-5.483-2.332-7.595-2.837-3.253-.775-5.963-.934-8.657-.507-2.274.363-4.852.774-7.388 2.15l-.439.238 4.768 8.789.439-.238c1.034-.56 2.569-.805 4.194-1.063 1.342-.215 2.834-.104 4.76.357 2.171.52 3.697 1.07 4.947 1.787 1.468.842 2.86 1.946 4.337 3.117 3.173 2.515 6.769 5.364 11.987 6.244a17.49 17.49 0 002.88.237c2.02 0 3.989-.34 5.696-.983 3.353-1.262 6.108-3.819 8.192-7.602l.242-.435-8.756-4.83z"/><path fill="#5A1172" d="M65.454 42.5c-12.131 0-22 11.888-22 26.5s9.869 26.5 22 26.5 22-11.888 22-26.5-9.869-26.5-22-26.5zm0 43c-6.505 0-12-7.556-12-16.5s5.495-16.5 12-16.5 12 7.556 12 16.5-5.495 16.5-12 16.5zM39.26 57.531c1.367-4.192 3.461-7.971 6.102-11.133l-2.147-.198c-.956-.093-1.822-.17-2.748-.17C19.256 46.03 2 63.285 2 84.495c0 2.862 2.322 5.19 5.176 5.19h2.778a5.194 5.194 0 005.187-5.19c0-13.291 10.282-24.264 23.497-25.21.19-.591.401-1.174.622-1.754z"/></svg><svg width="100" height="100" viewBox="0 0 100 100" id="on-job" x="300" y="300" xmlns="http://www.w3.org/2000/svg"><path fill="#8D23A9" d="M40.473 38.307c10.026 0 18.16-8.125 18.16-18.149C58.633 10.131 50.499 2 40.473 2s-18.145 8.131-18.145 18.157c.001 10.014 8.119 18.15 18.145 18.15z"/><path fill="#8D23A9" d="M58.986 20.242c0 10.074-8.168 18.238-18.24 18.238-10.075 0-18.232-8.176-18.232-18.238C22.514 10.169 30.677 2 40.746 2c10.072 0 18.24 8.169 18.24 18.242zM96.167 57.734a6.227 6.227 0 00-4.433-1.838c-1.67 0-3.242.651-4.428 1.838L62.157 82.875l-8.47-8.471a6.2 6.2 0 00-4.413-1.819 6.252 6.252 0 00-4.448 1.839c-2.437 2.447-2.437 6.422.001 8.859l12.895 12.895C58.896 97.354 60.471 98 62.174 98h.023c1.678 0 3.246-.65 4.416-1.831l29.563-29.565c2.435-2.436 2.431-6.415-.009-8.87zM15.343 84.4c0-13.989 11.383-25.371 25.374-25.371 6.667 0 12.737 2.587 17.271 6.805l9.4-9.396c-6.969-6.646-16.377-10.75-26.667-10.75C19.371 45.688 2 63.055 2 84.4c0 2.914 2.366 5.285 5.274 5.285h2.783a5.29 5.29 0 005.286-5.285z"/></svg><svg width="100" height="100" viewBox="0 0 100 100" id="on-job-disabled" x="400" y="400" xmlns="http://www.w3.org/2000/svg"><path fill="#C1C1C1" d="M40.473 38.307c10.026 0 18.16-8.125 18.16-18.149C58.633 10.131 50.499 2 40.473 2s-18.145 8.131-18.145 18.157c.001 10.014 8.119 18.15 18.145 18.15z"/><path fill="#C1C1C1" d="M58.986 20.242c0 10.074-8.168 18.238-18.24 18.238-10.075 0-18.232-8.176-18.232-18.238C22.514 10.169 30.677 2 40.746 2c10.072 0 18.24 8.169 18.24 18.242zM96.167 57.734a6.223 6.223 0 00-4.433-1.838c-1.67 0-3.242.65-4.428 1.838L62.157 82.875l-8.47-8.471a6.2 6.2 0 00-4.414-1.819 6.252 6.252 0 00-4.448 1.839c-2.437 2.447-2.437 6.422.001 8.859l12.896 12.895C58.896 97.354 60.471 98 62.174 98h.023c1.678 0 3.246-.65 4.416-1.831l29.563-29.565c2.435-2.436 2.431-6.415-.009-8.87zM15.343 84.4c0-13.989 11.383-25.371 25.374-25.371 6.667 0 12.737 2.587 17.271 6.805l9.4-9.396c-6.97-6.646-16.377-10.75-26.667-10.75C19.371 45.688 2 63.055 2 84.4c0 2.914 2.366 5.285 5.274 5.285h2.783a5.29 5.29 0 005.286-5.285z"/></svg><svg width="100" height="100" viewBox="0 0 100 100" id="on-job-hover" x="500" y="500" xmlns="http://www.w3.org/2000/svg"><path fill="#5A1172" d="M40.473 38.307c10.026 0 18.16-8.125 18.16-18.149C58.633 10.131 50.499 2 40.473 2s-18.145 8.131-18.145 18.157c.001 10.014 8.119 18.15 18.145 18.15z"/><path fill="#5A1172" d="M58.986 20.242c0 10.074-8.168 18.238-18.24 18.238-10.075 0-18.232-8.176-18.232-18.238C22.514 10.169 30.677 2 40.746 2c10.072 0 18.24 8.169 18.24 18.242zM96.167 57.734a6.227 6.227 0 00-4.433-1.838c-1.67 0-3.242.651-4.428 1.838L62.157 82.875l-8.47-8.471a6.2 6.2 0 00-4.413-1.819 6.252 6.252 0 00-4.448 1.839c-2.437 2.447-2.437 6.422.001 8.859l12.895 12.895C58.896 97.354 60.471 98 62.174 98h.023c1.678 0 3.246-.65 4.416-1.831l29.563-29.565c2.435-2.436 2.431-6.415-.009-8.87zM15.343 84.4c0-13.989 11.383-25.371 25.374-25.371 6.667 0 12.737 2.587 17.271 6.805l9.4-9.396c-6.969-6.646-16.377-10.75-26.667-10.75C19.371 45.688 2 63.055 2 84.4c0 2.914 2.366 5.285 5.274 5.285h2.783a5.29 5.29 0 005.286-5.285z"/></svg><svg width="100" height="100" viewBox="0 0 100 100" id="process" x="600" y="600" xmlns="http://www.w3.org/2000/svg"><path fill="#33B679" d="M65.494 12.53l-9.033-9.025a4.793 4.793 0 00-.801-.621v10.448h10.447a5.071 5.071 0 00-.613-.802zM32.667 59.855a4.996 4.996 0 00-.796-.617v10.449h10.448a5.543 5.543 0 00-.614-.801h-.011l-9.027-9.031z"/><path fill="#33B679" d="M78.754 72.51v.012a2.043 2.043 0 01-1.499-.627 2.04 2.04 0 01-.62-1.5V51.359c0-.652-.265-1.296-.723-1.75a2.542 2.542 0 00-1.762-.734H52.487v-7.219h12.392a2.03 2.03 0 001.5-.614c.416-.416.615-.917.615-1.506V16.172H54.953a2.061 2.061 0 01-1.5-.62 2.044 2.044 0 01-.625-1.506V2H35.135c-.588 0-1.084.204-1.506.62a2.057 2.057 0 00-.614 1.495v35.416c0 .584.209 1.088.614 1.5.416.417.917.615 1.506.615H47.51v7.225H25.848c-.657 0-1.291.265-1.76.73a2.557 2.557 0 00-.73 1.756v7h-12.02c-.592 0-1.089.197-1.506.613a2.054 2.054 0 00-.617 1.506v35.402c0 .592.209 1.093.617 1.511.417.408.915.611 1.506.611h29.739a2.06 2.06 0 001.5-.613c.417-.407.625-.92.625-1.5V72.51l-12.041.012a2.028 2.028 0 01-1.5-.627 2.008 2.008 0 01-.625-1.494V58.354h-.688v-4.51H71.65v4.51H58.932c-.594 0-1.095.199-1.511.613-.406.419-.615.92-.615 1.5v35.409a2.087 2.087 0 002.126 2.119h29.74c.582 0 1.081-.198 1.499-.608.415-.418.613-.92.613-1.511V72.51h-12.03z"/><path fill="#33B679" d="M79.463 69.677h10.436a6 6 0 00-.607-.79l-9.038-9.033c-.062-.061-.167-.125-.25-.187-.171-.147-.323-.292-.552-.437l.011 10.447z"/></svg><svg width="100" height="100" viewBox="0 0 100 100" id="process-disabled" x="700" y="700" xmlns="http://www.w3.org/2000/svg"><path fill="#C1C1C1" d="M65.494 12.53l-9.033-9.025a4.793 4.793 0 00-.801-.621v10.448h10.447a5.071 5.071 0 00-.613-.802zM32.667 59.855a4.996 4.996 0 00-.796-.617v10.449h10.448a5.543 5.543 0 00-.614-.801h-.011l-9.027-9.031z"/><path fill="#C1C1C1" d="M78.754 72.51v.012a2.043 2.043 0 01-1.499-.627 2.04 2.04 0 01-.62-1.5V51.359c0-.652-.265-1.296-.723-1.75a2.542 2.542 0 00-1.762-.734H52.487v-7.219h12.392a2.03 2.03 0 001.5-.614c.416-.416.615-.917.615-1.506V16.172H54.953a2.061 2.061 0 01-1.5-.62 2.044 2.044 0 01-.625-1.506V2H35.135c-.588 0-1.084.204-1.506.62a2.057 2.057 0 00-.614 1.495v35.416c0 .584.209 1.088.614 1.5.416.417.917.615 1.506.615H47.51v7.225H25.848c-.657 0-1.291.265-1.76.73a2.557 2.557 0 00-.73 1.756v7h-12.02c-.592 0-1.089.197-1.506.613a2.054 2.054 0 00-.617 1.506v35.402c0 .592.209 1.093.617 1.511.417.408.915.611 1.506.611h29.739a2.06 2.06 0 001.5-.613c.417-.407.625-.92.625-1.5V72.51l-12.041.012a2.028 2.028 0 01-1.5-.627 2.008 2.008 0 01-.625-1.494V58.354h-.688v-4.51H71.65v4.51H58.932c-.594 0-1.095.199-1.511.613-.406.419-.615.92-.615 1.5v35.409a2.087 2.087 0 002.126 2.119h29.74c.582 0 1.081-.198 1.499-.608.415-.418.613-.92.613-1.511V72.51h-12.03z"/><path fill="#C1C1C1" d="M79.463 69.677h10.436a6 6 0 00-.607-.79l-9.038-9.033c-.062-.061-.167-.125-.25-.187-.171-.147-.323-.292-.552-.437l.011 10.447z"/></svg><svg width="100" height="100" viewBox="0 0 100 100" id="process-hover" x="800" y="800" xmlns="http://www.w3.org/2000/svg"><path fill="#2BA066" d="M65.494 12.53l-9.033-9.025a4.793 4.793 0 00-.801-.621v10.448h10.447a5.071 5.071 0 00-.613-.802zM32.667 59.855a4.996 4.996 0 00-.796-.617v10.449h10.448a5.543 5.543 0 00-.614-.801h-.011l-9.027-9.031z"/><path fill="#2BA066" d="M78.754 72.51v.012a2.043 2.043 0 01-1.499-.627 2.04 2.04 0 01-.62-1.5V51.359c0-.652-.265-1.296-.723-1.75a2.542 2.542 0 00-1.762-.734H52.487v-7.219h12.392a2.03 2.03 0 001.5-.614c.416-.416.615-.917.615-1.506V16.172H54.953a2.061 2.061 0 01-1.5-.62 2.044 2.044 0 01-.625-1.506V2H35.135c-.588 0-1.084.204-1.506.62a2.057 2.057 0 00-.614 1.495v35.416c0 .584.209 1.088.614 1.5.416.417.917.615 1.506.615H47.51v7.225H25.848c-.657 0-1.291.265-1.76.73a2.557 2.557 0 00-.73 1.756v7h-12.02c-.592 0-1.089.197-1.506.613a2.054 2.054 0 00-.617 1.506v35.402c0 .592.209 1.093.617 1.511.417.408.915.611 1.506.611h29.739a2.06 2.06 0 001.5-.613c.417-.407.625-.92.625-1.5V72.51l-12.041.012a2.028 2.028 0 01-1.5-.627 2.008 2.008 0 01-.625-1.494V58.354h-.688v-4.51H71.65v4.51H58.932c-.594 0-1.095.199-1.511.613-.406.419-.615.92-.615 1.5v35.409a2.087 2.087 0 002.126 2.119h29.74c.582 0 1.081-.198 1.499-.608.415-.418.613-.92.613-1.511V72.51h-12.03z"/><path fill="#2BA066" d="M79.463 69.677h10.436a6 6 0 00-.607-.79l-9.038-9.033c-.062-.061-.167-.125-.25-.187-.171-.147-.323-.292-.552-.437l.011 10.447z"/></svg><svg width="100" height="100" viewBox="0 0 100 100" id="query" x="900" y="900" xmlns="http://www.w3.org/2000/svg"><path fill="#FFF" d="M71.811 8.571C65.727 4.188 58.094 2 48.889 2 41.899 2 35.991 3.537 31.2 6.627c-7.617 4.833-11.658 13.046-12.143 24.615h17.636c0-3.376.989-6.61 2.951-9.751 1.969-3.122 5.306-4.688 10.02-4.688 4.792 0 8.098 1.275 9.889 3.807 1.814 2.54 2.707 5.353 2.707 8.432 0 2.696-1.342 5.152-2.975 7.378-.885 1.299-2.061 2.499-3.514 3.595 0 0-9.564 6.131-13.765 11.063-2.437 2.85-2.653 7.134-2.875 13.271-.01.44.153 1.345 1.685 1.345h13.713c1.363 0 1.648-1.011 1.668-1.462.098-2.23.342-3.375.75-4.668.773-2.438 2.865-4.562 5.221-6.395l4.854-3.348c4.387-3.417 7.875-6.215 9.432-8.414 2.633-3.605 4.49-8.053 4.49-13.336-.022-8.614-3.049-15.102-9.133-19.5zM48.605 76.272c-6.073-.188-11.083 4.012-11.281 10.612-.187 6.582 4.576 10.931 10.658 11.109 6.341.187 11.231-3.871 11.429-10.472.177-6.589-4.45-11.066-10.806-11.249z"/></svg><svg width="100" height="100" viewBox="0 0 100 100" id="remind" x="1000" y="1000" xmlns="http://www.w3.org/2000/svg"><path fill="#FFF" d="M79.542 68.459l9.918 9.924v4.848H10.539v-4.848l9.923-9.924V44c0-15.234 8.082-27.694 22.155-31.152V9.383C42.617 5.229 45.848 2 50.001 2c4.158 0 7.382 3.229 7.382 7.383v3.465C71.46 16.307 79.542 28.996 79.542 44v24.459zM50.001 98c-5.539 0-9.926-4.387-9.926-9.695H59.93C59.919 93.613 55.297 98 50.001 98z"/></svg><svg width="100" height="100" viewBox="0 0 100 100" id="return" x="1100" y="1100" xmlns="http://www.w3.org/2000/svg"><path fill="#FFF" d="M12.142 77.521c0 3.725-2.277 6.764-5.073 6.764C4.277 84.285 2 81.246 2 77.521V22.477c0-3.709 2.284-6.763 5.069-6.763 2.795 0 5.073 3.054 5.073 6.763v55.044zM54.865 77.05c0 3.725-2.289 4.749-5.082 2.305L21.372 54.458c-2.799-2.442-2.799-6.454 0-8.905L49.783 20.65c2.805-2.458 5.088-1.413 5.088 2.31l-.006 54.09zM97.994 77.05c0 3.725-2.291 4.749-5.09 2.305L64.5 54.458c-2.805-2.442-2.805-6.454 0-8.905L92.912 20.65C95.71 18.193 98 19.238 98 22.96v54.09h-.006z"/></svg><svg width="100" height="100" viewBox="0 0 100 100" id="seal" x="1200" y="1200" xmlns="http://www.w3.org/2000/svg"><path fill="#E57B72" d="M84.234 73.756a5.954 5.954 0 00-4.246-1.762c-8.281 0-21.993-6.774-21.993-13.993 0 0 .021-10.75.021-12.553 0-2.843 0-3.292 4.816-8.104a20.023 20.023 0 007.167-15.345C70 10.989 61.012 2 49.995 2c-11.019 0-20 8.989-20 20 0 5.928 2.625 11.517 7.033 15.22 4.967 4.963 4.967 5.406 4.967 8.78v12.001c0 7.219-13.712 13.993-21.995 13.993-3.303 0-6 2.699-6 6v6C14 85.1 14.896 86 16 86h67.995a2.01 2.01 0 002.006-2.006v-6a5.923 5.923 0 00-1.767-4.238zM48.39 14.157a8.022 8.022 0 00-4.823 12.624 2.001 2.001 0 01-1.593 3.198 2.064 2.064 0 01-1.606-.802 11.955 11.955 0 01-2.378-7.183c0-5.681 4.042-10.625 9.579-11.76a1.99 1.99 0 012.36 1.563c.217 1.078-.46 2.145-1.539 2.36zM21.994 89.994h-3.999v6C17.995 97.1 18.892 98 20 98h59.994c1.099 0 2.001-.9 2.001-2.006v-6H21.994z"/></svg><svg width="100" height="100" viewBox="0 0 100 100" id="seal-disabled" x="1300" y="1300" xmlns="http://www.w3.org/2000/svg"><path fill="#C1C1C1" d="M84.234 73.756a5.954 5.954 0 00-4.246-1.762c-8.281 0-21.993-6.774-21.993-13.993 0 0 .021-10.75.021-12.553 0-2.843 0-3.292 4.816-8.104a20.023 20.023 0 007.167-15.345C70 10.989 61.012 2 49.995 2c-11.019 0-20 8.989-20 20 0 5.928 2.625 11.517 7.033 15.22 4.967 4.963 4.967 5.406 4.967 8.78v12.001c0 7.219-13.712 13.993-21.995 13.993-3.303 0-6 2.699-6 6v6C14 85.1 14.896 86 16 86h67.995a2.01 2.01 0 002.006-2.006v-6a5.923 5.923 0 00-1.767-4.238zM48.39 14.157a8.022 8.022 0 00-4.823 12.624 2.001 2.001 0 01-1.593 3.198 2.064 2.064 0 01-1.606-.802 11.955 11.955 0 01-2.378-7.183c0-5.681 4.042-10.625 9.579-11.76a1.99 1.99 0 012.36 1.563c.217 1.078-.46 2.145-1.539 2.36zM21.994 89.994h-3.999v6C17.995 97.1 18.892 98 20 98h59.994c1.099 0 2.001-.9 2.001-2.006v-6H21.994z"/></svg><svg width="100" height="100" viewBox="0 0 100 100" id="seal-hover" x="1400" y="1400" xmlns="http://www.w3.org/2000/svg"><path fill="#CC625C" d="M84.234 73.756a5.954 5.954 0 00-4.246-1.762c-8.281 0-21.993-6.774-21.993-13.993 0 0 .021-10.75.021-12.553 0-2.843 0-3.292 4.816-8.104a20.023 20.023 0 007.167-15.345C70 10.989 61.012 2 49.995 2c-11.019 0-20 8.989-20 20 0 5.928 2.625 11.517 7.033 15.22 4.967 4.963 4.967 5.406 4.967 8.78v12.001c0 7.219-13.712 13.993-21.995 13.993-3.303 0-6 2.699-6 6v6C14 85.1 14.896 86 16 86h67.995a2.01 2.01 0 002.006-2.006v-6a5.923 5.923 0 00-1.767-4.238zM48.39 14.157a8.022 8.022 0 00-4.823 12.624 2.001 2.001 0 01-1.593 3.198 2.064 2.064 0 01-1.606-.802 11.955 11.955 0 01-2.378-7.183c0-5.681 4.042-10.625 9.579-11.76a1.99 1.99 0 012.36 1.563c.217 1.078-.46 2.145-1.539 2.36zM21.994 89.994h-3.999v6C17.995 97.1 18.892 98 20 98h59.994c1.099 0 2.001-.9 2.001-2.006v-6H21.994z"/></svg><svg width="100" height="100" viewBox="0 0 100 100" id="search" x="1500" y="1500" xmlns="http://www.w3.org/2000/svg"><path fill="#3F5CA9" d="M95.789 85.1L78.324 67.636c4.848-6.994 7.399-15.179 7.399-23.776 0-11.182-4.355-21.693-12.264-29.598C65.557 6.354 55.045 2 43.862 2s-21.695 4.354-29.6 12.262C6.354 22.166 2 32.677 2 43.86c0 11.184 4.354 21.695 12.262 29.596 7.905 7.908 18.417 12.264 29.6 12.264 8.597 0 16.782-2.553 23.776-7.398l17.464 17.465A7.513 7.513 0 0090.446 98a7.51 7.51 0 005.344-2.215A7.511 7.511 0 0098 90.442c0-2.02-.785-3.918-2.211-5.342zM63.275 62.254c-.167.142-.338.297-.551.505a6.86 6.86 0 00-.456.505 26.602 26.602 0 01-18.407 7.342c-7.146 0-13.864-2.781-18.915-7.831-5.051-5.054-7.833-11.772-7.833-18.915 0-7.145 2.782-13.862 7.832-18.914 5.054-5.05 11.771-7.832 18.916-7.832 7.141 0 13.86 2.782 18.915 7.832 5.05 5.051 7.832 11.769 7.832 18.914 0 6.907-2.603 13.435-7.333 18.394z"/></svg><svg width="100" height="100" viewBox="0 0 100 100" id="search-disabled" x="1600" y="1600" xmlns="http://www.w3.org/2000/svg"><path fill="#C1C1C1" d="M95.789 85.1L78.324 67.637c4.848-6.994 7.398-15.18 7.398-23.777 0-11.182-4.354-21.693-12.264-29.598C65.557 6.354 55.045 2 43.862 2s-21.695 4.354-29.6 12.262C6.354 22.166 2 32.677 2 43.86c0 11.184 4.354 21.695 12.262 29.596 7.905 7.907 18.417 12.265 29.6 12.265 8.597 0 16.783-2.554 23.777-7.398l17.463 17.465A7.516 7.516 0 0090.445 98a7.513 7.513 0 005.345-2.215c1.425-1.428 2.21-3.324 2.21-5.344s-.785-3.918-2.211-5.341zM63.275 62.254c-.168.143-.338.297-.551.505a6.89 6.89 0 00-.457.505 26.6 26.6 0 01-18.407 7.342c-7.146 0-13.864-2.78-18.915-7.83-5.051-5.055-7.833-11.772-7.833-18.916 0-7.145 2.782-13.862 7.832-18.914 5.054-5.05 11.771-7.832 18.916-7.832 7.141 0 13.86 2.782 18.915 7.832 5.051 5.051 7.832 11.769 7.832 18.914 0 6.908-2.602 13.435-7.332 18.394z"/></svg><svg width="100" height="100" viewBox="0 0 100 100" id="search-hover" x="1700" y="1700" xmlns="http://www.w3.org/2000/svg"><path fill="#294584" d="M95.789 85.1L78.324 67.637c4.848-6.994 7.398-15.18 7.398-23.777 0-11.182-4.354-21.693-12.264-29.598C65.557 6.354 55.045 2 43.862 2s-21.695 4.354-29.6 12.262C6.354 22.166 2 32.677 2 43.86c0 11.184 4.354 21.695 12.262 29.596 7.905 7.907 18.417 12.265 29.6 12.265 8.597 0 16.783-2.554 23.777-7.398l17.463 17.465A7.516 7.516 0 0090.445 98a7.513 7.513 0 005.345-2.215c1.425-1.428 2.21-3.324 2.21-5.344s-.785-3.918-2.211-5.341zM63.275 62.254c-.168.143-.338.297-.551.505a6.89 6.89 0 00-.457.505 26.6 26.6 0 01-18.407 7.342c-7.146 0-13.864-2.78-18.915-7.83-5.051-5.055-7.833-11.772-7.833-18.916 0-7.145 2.782-13.862 7.832-18.914 5.054-5.05 11.771-7.832 18.916-7.832 7.141 0 13.86 2.782 18.915 7.832 5.051 5.051 7.832 11.769 7.832 18.914 0 6.908-2.602 13.435-7.332 18.394z"/></svg><svg width="100" height="100" viewBox="0 0 100 100" id="sortdown" x="1800" y="1800" xmlns="http://www.w3.org/2000/svg"><path fill="#34495E" d="M40.13 62.064L22.41 44.335a4.413 4.413 0 00-3.135-1.287 4.404 4.404 0 00-3.132 1.287l-7.686 7.69a4.4 4.4 0 00-1.301 3.137c0 1.188.462 2.3 1.299 3.135l38.409 38.408A4.39 4.39 0 0050 98a4.4 4.4 0 003.136-1.291l38.411-38.41a4.446 4.446 0 00.004-6.273l-7.684-7.69a4.402 4.402 0 00-3.132-1.287 4.4 4.4 0 00-3.13 1.287L59.868 62.068V6.429A4.438 4.438 0 0055.431 2h-10.86a4.44 4.44 0 00-4.44 4.429l-.001 55.635z"/></svg><svg width="100" height="100" viewBox="0 0 100 100" id="sortdown-disabled" x="1900" y="1900" xmlns="http://www.w3.org/2000/svg"><path fill="#C1C1C1" d="M40.13 62.065l-17.72-17.73a4.413 4.413 0 00-3.135-1.287 4.404 4.404 0 00-3.132 1.287l-7.686 7.689a4.401 4.401 0 00-1.301 3.137c0 1.188.462 2.301 1.299 3.136l38.409 38.409A4.388 4.388 0 0050 98a4.392 4.392 0 003.135-1.292L91.547 58.3a4.446 4.446 0 00.004-6.273l-7.685-7.691a4.4 4.4 0 00-3.131-1.287 4.405 4.405 0 00-3.131 1.287L59.868 62.069V6.429A4.438 4.438 0 0055.431 2H44.572a4.44 4.44 0 00-4.44 4.429l-.002 55.636z"/></svg><svg width="100" height="100" viewBox="0 0 100 100" id="sortdown-hover" x="2000" y="2000" xmlns="http://www.w3.org/2000/svg"><path fill="#253544" d="M40.13 62.064L22.41 44.335a4.413 4.413 0 00-3.135-1.287 4.404 4.404 0 00-3.132 1.287l-7.686 7.69a4.4 4.4 0 00-1.301 3.137c0 1.188.462 2.3 1.299 3.135l38.409 38.408A4.39 4.39 0 0050 98a4.4 4.4 0 003.136-1.291l38.411-38.41a4.446 4.446 0 00.004-6.273l-7.684-7.69a4.402 4.402 0 00-3.132-1.287 4.4 4.4 0 00-3.13 1.287L59.868 62.068V6.429A4.438 4.438 0 0055.431 2h-10.86a4.44 4.44 0 00-4.44 4.429l-.001 55.635z"/></svg><svg width="100" height="100" viewBox="0 0 100 100" id="sortup" x="2100" y="2100" xmlns="http://www.w3.org/2000/svg"><path fill="#34495E" d="M59.87 37.933l17.72 17.733a4.406 4.406 0 003.133 1.285 4.4 4.4 0 003.133-1.285l7.687-7.692a4.396 4.396 0 001.302-3.136 4.391 4.391 0 00-1.3-3.134L53.136 3.294A4.397 4.397 0 0050 2a4.39 4.39 0 00-3.135 1.292L8.454 41.701a4.444 4.444 0 00-.004 6.273l7.683 7.693a4.403 4.403 0 003.131 1.286c1.187 0 2.3-.457 3.131-1.286l17.736-17.736v55.641A4.438 4.438 0 0044.568 98h10.859c2.448 0 4.441-1.986 4.441-4.428l.002-55.639z"/></svg><svg width="100" height="100" viewBox="0 0 100 100" id="sortup-disabled" x="2200" y="2200" xmlns="http://www.w3.org/2000/svg"><path fill="#C1C1C1" d="M59.871 37.934l17.72 17.733a4.406 4.406 0 003.132 1.285 4.404 4.404 0 003.135-1.285l7.686-7.692a4.391 4.391 0 001.301-3.136 4.386 4.386 0 00-1.299-3.134L53.137 3.293A4.398 4.398 0 0050 2a4.389 4.389 0 00-3.135 1.292L8.454 41.7a4.444 4.444 0 00-.004 6.273l7.684 7.693a4.403 4.403 0 003.132 1.286c1.187 0 2.3-.457 3.131-1.286L40.133 37.93v55.641A4.438 4.438 0 0044.57 98h10.859c2.448 0 4.441-1.987 4.441-4.429l.001-55.637z"/></svg><svg width="100" height="100" viewBox="0 0 100 100" id="sortup-hover" x="2300" y="2300" xmlns="http://www.w3.org/2000/svg"><path fill="#253544" d="M59.871 37.934l17.72 17.733a4.406 4.406 0 003.132 1.285 4.404 4.404 0 003.135-1.285l7.686-7.692a4.391 4.391 0 001.301-3.136 4.386 4.386 0 00-1.299-3.134L53.137 3.293A4.398 4.398 0 0050 2a4.389 4.389 0 00-3.135 1.292L8.454 41.7a4.444 4.444 0 00-.004 6.273l7.684 7.693a4.403 4.403 0 003.132 1.286c1.187 0 2.3-.457 3.131-1.286L40.133 37.93v55.641A4.438 4.438 0 0044.57 98h10.859c2.448 0 4.441-1.987 4.441-4.429l.001-55.637z"/></svg><svg width="100" height="100" viewBox="0 0 100 100" id="stepmoveleft" x="2400" y="2400" xmlns="http://www.w3.org/2000/svg"><path fill="#555" d="M61.894 95.381c-3.469-3.384-37.271-38.857-37.271-38.857-1.848-1.828-2.777-4.172-2.777-6.532 0-2.36.922-4.719 2.777-6.517 0 0 33.802-35.505 37.271-38.857 3.469-3.375 9.689-3.602 13.386 0 3.687 3.586 3.977 8.619 0 13.034l-31.013 32.34L75.28 82.348c3.977 4.414 3.687 9.447 0 13.048-3.713 3.58-9.918 3.368-13.386-.015z"/></svg><svg width="100" height="100" viewBox="0 0 100 100" id="stepmoveright" x="2500" y="2500" xmlns="http://www.w3.org/2000/svg"><path fill="#555" d="M38.106 4.619c3.469 3.384 37.27 38.858 37.27 38.858 1.85 1.828 2.779 4.172 2.779 6.532 0 2.36-.922 4.72-2.779 6.516 0 0-33.801 35.507-37.27 38.858-3.47 3.375-9.69 3.602-13.386 0-3.688-3.587-3.977-8.619 0-13.033l31.014-32.342L24.72 17.652c-3.977-4.415-3.688-9.447 0-13.048 3.712-3.579 9.916-3.368 13.386.015z"/></svg><svg width="100" height="100" viewBox="0 0 100 100" id="success" x="2600" y="2600" xmlns="http://www.w3.org/2000/svg"><path fill="#FFF" d="M98 27.575c0 1.65-.58 3.061-1.736 4.219L43 85.053c-1.162 1.151-2.561 1.731-4.21 1.731-1.65 0-3.052-.585-4.212-1.731L3.736 54.209C2.575 53.054 2 51.647 2 49.999c0-1.65.575-3.052 1.733-4.205l8.426-8.426c1.155-1.164 2.557-1.737 4.21-1.737 1.65 0 3.052.578 4.207 1.737l18.215 18.269 40.625-40.691c1.16-1.151 2.563-1.729 4.211-1.729 1.654 0 3.061.583 4.21 1.729l8.427 8.42c1.166 1.156 1.734 2.565 1.734 4.219H98v-.01z"/></svg></svg>