<?xml version="1.0" encoding="utf-8"?><!DOCTYPE svg PUBLIC "-//W3C//DTD SVG 1.1//EN" "http://www.w3.org/Graphics/SVG/1.1/DTD/svg11.dtd"><svg width="1500" height="1500" viewBox="0 0 1500 1500" xmlns="http://www.w3.org/2000/svg" xmlns:xlink="http://www.w3.org/1999/xlink"><svg width="100" height="100" viewBox="0 0 100 100" id="toggle-all-hide" xmlns="http://www.w3.org/2000/svg"><path fill="#0A7F42" d="M94.545 41H5.454A3.457 3.457 0 002 44.454v11.092A3.457 3.457 0 005.454 59l89.091-.001A3.458 3.458 0 0098 55.545V44.454A3.458 3.458 0 0094.545 41z"/></svg><svg width="100" height="100" viewBox="0 0 100 100" id="toggle-all-hide-disabled" x="100" y="100" xmlns="http://www.w3.org/2000/svg"><path fill="#C1C1C1" d="M94.545 41H5.454A3.457 3.457 0 002 44.454v11.092A3.457 3.457 0 005.454 59l89.091-.001A3.458 3.458 0 0098 55.545V44.454A3.458 3.458 0 0094.545 41z"/></svg><svg width="100" height="100" viewBox="0 0 100 100" id="toggle-all-hide-hover" x="200" y="200" xmlns="http://www.w3.org/2000/svg"><path fill="#07592C" d="M94.545 41H5.454A3.457 3.457 0 002 44.454v11.092A3.457 3.457 0 005.454 59l89.091-.001A3.458 3.458 0 0098 55.545V44.454A3.458 3.458 0 0094.545 41z"/></svg><svg width="100" height="100" viewBox="0 0 100 100" id="toggle-all-show" x="300" y="300" xmlns="http://www.w3.org/2000/svg"><path fill="#3F5CA9" d="M67 33v55H12V33h55m10-10H2v75h75V23z"/><path fill="#3F5CA9" d="M23 2v28.087h10V12h55v55H71.502v10H98V2z"/></svg><svg width="100" height="100" viewBox="0 0 100 100" id="toggle-all-show-disabled" x="400" y="400" xmlns="http://www.w3.org/2000/svg"><path fill="#C1C1C1" d="M67 33v55H12V33h55m10-10H2v75h75V23z"/><path fill="#C1C1C1" d="M23 2v28.087h10V12h55v55H71.502v10H98V2z"/></svg><svg width="100" height="100" viewBox="0 0 100 100" id="toggle-all-show-hover" x="500" y="500" xmlns="http://www.w3.org/2000/svg"><path fill="#294584" d="M67 33v55H12V33h55m10-10H2v75h75V23z"/><path fill="#294584" d="M23 2v28.087h10V12h55v55H71.502v10H98V2z"/></svg><svg width="100" height="100" viewBox="0 0 100 100" id="trash" x="600" y="600" xmlns="http://www.w3.org/2000/svg"><path fill="#D84A55" d="M95.979 19.685H72.371l-4.018-9.583c-1.256-3.063-5.011-5.575-8.338-5.575H39.981c-3.321 0-7.074 2.507-8.332 5.575l-4.024 9.583H4.016c-1.1 0-2.016.906-2.016 2.023v3.532a2.03 2.03 0 002.016 2.023h10.616v56.254c0 6.577 4.3 11.956 9.56 11.956h51.615c5.26 0 9.563-5.615 9.563-12.191V27.264h10.609A2.025 2.025 0 0098 25.241v-3.532a2.024 2.024 0 00-2.021-2.024zM39.037 13.24c.187-.256.685-.622 1.065-.695h19.866c.306.074.868.439 1.055.695l2.645 6.445h-27.33l2.699-6.445zm-.516 65.02c0 1.08-.833 1.918-1.909 1.918H32.78a1.89 1.89 0 01-1.909-1.918V36.175c0-1.081.838-1.924 1.909-1.924h3.832c1.076 0 1.909.844 1.909 1.924V78.26zm15.313 0c0 1.08-.844 1.918-1.919 1.918h-3.819a1.9 1.9 0 01-1.924-1.918V36.175c0-1.081.849-1.924 1.924-1.924h3.819c1.075 0 1.919.844 1.919 1.924V78.26zm15.301 0c0 1.08-.839 1.918-1.915 1.918h-3.828a1.892 1.892 0 01-1.914-1.918V36.175c0-1.081.839-1.924 1.914-1.924h3.828c1.076 0 1.915.844 1.915 1.924V78.26z"/></svg><svg width="100" height="100" viewBox="0 0 100 100" id="trash-disabled" x="700" y="700" xmlns="http://www.w3.org/2000/svg"><path fill="#C1C1C1" d="M95.979 19.685H72.371l-4.018-9.583c-1.256-3.063-5.011-5.575-8.338-5.575H39.981c-3.321 0-7.074 2.507-8.332 5.575l-4.024 9.583H4.016c-1.1 0-2.016.906-2.016 2.023v3.532a2.03 2.03 0 002.016 2.023h10.616v56.254c0 6.577 4.3 11.956 9.56 11.956h51.615c5.26 0 9.563-5.615 9.563-12.191V27.264h10.609A2.025 2.025 0 0098 25.241v-3.532a2.024 2.024 0 00-2.021-2.024zM39.037 13.24c.187-.256.685-.622 1.065-.695h19.866c.306.074.868.439 1.055.695l2.645 6.445h-27.33l2.699-6.445zm-.516 65.02c0 1.08-.833 1.918-1.909 1.918H32.78a1.89 1.89 0 01-1.909-1.918V36.175c0-1.081.838-1.924 1.909-1.924h3.832c1.076 0 1.909.844 1.909 1.924V78.26zm15.313 0c0 1.08-.844 1.918-1.919 1.918h-3.819a1.9 1.9 0 01-1.924-1.918V36.175c0-1.081.849-1.924 1.924-1.924h3.819c1.075 0 1.919.844 1.919 1.924V78.26zm15.301 0c0 1.08-.839 1.918-1.915 1.918h-3.828a1.892 1.892 0 01-1.914-1.918V36.175c0-1.081.839-1.924 1.914-1.924h3.828c1.076 0 1.915.844 1.915 1.924V78.26z"/></svg><svg width="100" height="100" viewBox="0 0 100 100" id="trash-hover" x="800" y="800" xmlns="http://www.w3.org/2000/svg"><path fill="#C00" d="M95.979 19.685H72.371l-4.018-9.583c-1.256-3.063-5.011-5.575-8.338-5.575H39.981c-3.321 0-7.074 2.507-8.332 5.575l-4.024 9.583H4.016c-1.1 0-2.016.906-2.016 2.023v3.532a2.03 2.03 0 002.016 2.023h10.616v56.254c0 6.577 4.3 11.956 9.56 11.956h51.615c5.26 0 9.563-5.615 9.563-12.191V27.264h10.609A2.025 2.025 0 0098 25.241v-3.532a2.024 2.024 0 00-2.021-2.024zM39.037 13.24c.187-.256.685-.622 1.065-.695h19.866c.306.074.868.439 1.055.695l2.645 6.445h-27.33l2.699-6.445zm-.516 65.02c0 1.08-.833 1.918-1.909 1.918H32.78a1.89 1.89 0 01-1.909-1.918V36.175c0-1.081.838-1.924 1.909-1.924h3.832c1.076 0 1.909.844 1.909 1.924V78.26zm15.313 0c0 1.08-.844 1.918-1.919 1.918h-3.819a1.9 1.9 0 01-1.924-1.918V36.175c0-1.081.849-1.924 1.924-1.924h3.819c1.075 0 1.919.844 1.919 1.924V78.26zm15.301 0c0 1.08-.839 1.918-1.915 1.918h-3.828a1.892 1.892 0 01-1.914-1.918V36.175c0-1.081.839-1.924 1.914-1.924h3.828c1.076 0 1.915.844 1.915 1.924V78.26z"/></svg><svg width="100" height="100" viewBox="0 0 100 100" id="up-circle" x="900" y="900" xmlns="http://www.w3.org/2000/svg"><path fill="#555" d="M50 98c26.592 0 48-21.398 48-48S76.592 2 50 2C23.41 2 2 23.398 2 50c0 26.6 21.41 48 48 48zM22.308 56.551l28.008-27.825.301.298L77.995 56.6l-6.427 6.421-.306-.312-20.957-21.135-21.891 21.703-6.416-6.422.31-.304z"/></svg><svg width="100" height="100" viewBox="0 0 100 100" id="upload-file" x="1000" y="1000" xmlns="http://www.w3.org/2000/svg"><path fill="#282828" d="M52.649 88.685V52.649l8.946 8.931 3.879-3.858L50 42.263 34.526 57.722l3.869 3.858 8.953-8.931v36.036z"/><path fill="#282828" d="M91.666 24.634H52.065l-6.5-12.956-.167-.362H8.313C4.282 11.316 1 14.58 1 18.584v62.832c0 4.004 3.269 7.269 7.293 7.269h29.172V84.08H8.289a2.666 2.666 0 01-2.672-2.669V18.579a2.668 2.668 0 012.667-2.669h34.319l6.462 13.177.073.141h42.553a2.704 2.704 0 012.705 2.7v49.438a2.683 2.683 0 01-2.68 2.685H62.532v4.609h29.185c4.02 0 7.283-3.27 7.283-7.278V31.897c-.01-4-3.294-7.263-7.334-7.263z"/></svg><svg width="100" height="100" viewBox="0 0 100 100" id="upload-file-disabled" x="1100" y="1100" xmlns="http://www.w3.org/2000/svg"><path fill="#BCBCBC" d="M52.649 88.685V52.649l8.946 8.931 3.879-3.858L50 42.263 34.526 57.722l3.869 3.858 8.953-8.931v36.036z"/><path fill="#BCBCBC" d="M91.666 24.634H52.065l-6.5-12.956-.167-.362H8.313C4.282 11.316 1 14.58 1 18.584v62.832c0 4.004 3.269 7.269 7.293 7.269h29.172V84.08H8.289a2.666 2.666 0 01-2.672-2.669V18.579a2.668 2.668 0 012.667-2.669h34.319l6.462 13.177.073.141h42.553a2.704 2.704 0 012.705 2.7v49.438a2.683 2.683 0 01-2.68 2.685H62.532v4.609h29.185c4.02 0 7.283-3.27 7.283-7.278V31.897c-.01-4-3.294-7.263-7.334-7.263z"/></svg><svg width="100" height="100" viewBox="0 0 100 100" id="upload-multiple" x="1200" y="1200" xmlns="http://www.w3.org/2000/svg"><g fill="#282828"><path d="M52.649 46.021l8.946 8.951 3.879-3.868L50 35.625 34.526 51.104l3.869 3.868 8.953-8.951V84.07H36.982v4.604h26.024V84.07H52.649z"/><path d="M42.263 66.577L26.79 51.098 11.316 66.577l3.868 3.868 8.954-8.951v27.18h5.299v-27.18l8.948 8.951zM88.685 66.577L73.211 51.098 57.737 66.577l3.868 3.868 8.957-8.951v27.18h5.298v-27.18l8.946 8.951z"/><path d="M91.666 24.634H52.065l-6.5-12.956-.167-.362H8.313C4.282 11.316 1 14.58 1 18.584v62.832c0 4.004 3.269 7.269 7.293 7.269h8.541V84.08H8.289a2.666 2.666 0 01-2.672-2.669V18.579a2.668 2.668 0 012.667-2.669h34.319l6.462 13.177.073.141h42.553a2.704 2.704 0 012.705 2.7v49.438a2.683 2.683 0 01-2.68 2.685h-8.553v4.609h8.553c4.02 0 7.283-3.27 7.283-7.278V31.897c-.009-4-3.293-7.263-7.333-7.263z"/></g></svg><svg width="100" height="100" viewBox="0 0 100 100" id="upload-multiple-disabled" x="1300" y="1300" xmlns="http://www.w3.org/2000/svg"><g fill="#BCBCBC"><path d="M52.649 46.021l8.946 8.951 3.879-3.868L50 35.625 34.526 51.104l3.869 3.868 8.953-8.951V84.07H36.982v4.604h26.024V84.07H52.649z"/><path d="M42.263 66.577L26.79 51.098 11.316 66.577l3.868 3.868 8.954-8.951v27.18h5.299v-27.18l8.948 8.951zM88.685 66.577L73.211 51.098 57.737 66.577l3.868 3.868 8.957-8.951v27.18h5.298v-27.18l8.946 8.951z"/><path d="M91.666 24.634H52.065l-6.5-12.956-.167-.362H8.313C4.282 11.316 1 14.58 1 18.584v62.832c0 4.004 3.269 7.269 7.293 7.269h8.541V84.08H8.289a2.666 2.666 0 01-2.672-2.669V18.579a2.668 2.668 0 012.667-2.669h34.319l6.462 13.177.073.141h42.553a2.704 2.704 0 012.705 2.7v49.438a2.683 2.683 0 01-2.68 2.685h-8.553v4.609h8.553c4.02 0 7.283-3.27 7.283-7.278V31.897c-.009-4-3.293-7.263-7.333-7.263z"/></g></svg><svg width="100" height="100" viewBox="0 0 100 100" id="warning" x="1400" y="1400" xmlns="http://www.w3.org/2000/svg"><path fill="#FFF" d="M63.09 78.362v15.275c0 2.386-1.977 4.362-4.362 4.362H41.272c-2.386 0-4.364-1.979-4.364-4.362V78.362c0-2.386 1.978-4.362 4.364-4.362h17.455c2.386 0 4.363 1.979 4.363 4.362zm2.048-71.998l-1.91 52.364c-.069 2.385-2.114 4.362-4.5 4.362H41.272c-2.386 0-4.433-1.978-4.5-4.362L34.863 6.364A4.237 4.237 0 0139.091 2H60.91c2.386 0 4.293 1.978 4.228 4.364z"/></svg></svg>